<svg width="702" height="428" viewBox="0 0 702 428" fill="none" xmlns="http://www.w3.org/2000/svg">
<g clip-path="url(#clip0_2_7458)">
<path d="M0 373.113H136.922V427.882H6.84611C3.06511 427.882 0 424.816 0 421.035L0 373.113Z" fill="black" fill-opacity="0.1"/>
<path fill-rule="evenodd" clip-rule="evenodd" d="M26.0164 413.848C33.5784 413.848 39.7086 407.717 39.7086 400.155C39.7086 392.593 33.5784 386.463 26.0164 386.463C18.4544 386.463 12.3242 392.593 12.3242 400.155C12.3242 407.717 18.4544 413.848 26.0164 413.848Z" fill="white" fill-opacity="0.1" stroke="white" stroke-opacity="0.3" stroke-width="0.821532"/>
<mask id="mask0_2_7458" style="mask-type:luminance" maskUnits="userSpaceOnUse" x="17" y="391" width="18" height="18">
<path d="M17.7998 391.939H34.2304V408.37H17.7998V391.939Z" fill="white"/>
</mask>
<g mask="url(#mask0_2_7458)">
<path d="M26.0121 393.309L19.166 400.155L26.0121 407.001L32.8582 400.155L26.0121 393.309Z" fill="#4B65FD" stroke="black" stroke-width="0.821532" stroke-miterlimit="10" stroke-linecap="round" stroke-linejoin="round"/>
<path fill-rule="evenodd" clip-rule="evenodd" d="M24.2999 400.557C24.1394 400.397 23.8794 400.397 23.7189 400.557C23.5585 400.718 23.5585 400.978 23.7189 401.138L25.7936 403.213C25.8707 403.29 25.9752 403.333 26.0841 403.333C26.193 403.333 26.2975 403.29 26.3746 403.213L28.4493 401.138C28.6097 400.978 28.6097 400.718 28.4493 400.557C28.2888 400.397 28.0288 400.397 27.8683 400.557L26.4968 401.929V397.044C26.4968 396.817 26.3129 396.633 26.086 396.633C25.8591 396.633 25.6752 396.817 25.6752 397.044V401.933L24.2999 400.557Z" fill="black"/>
</g>
<mask id="mask1_2_7458" style="mask-type:luminance" maskUnits="userSpaceOnUse" x="46" y="389" width="76" height="22">
<path d="M46.5547 389.598H121.862V410.712H46.5547V389.598Z" fill="white"/>
</mask>
<g mask="url(#mask1_2_7458)">
<path d="M89.7783 389.598H48.7432C47.5345 389.598 46.5547 390.578 46.5547 391.786C46.5547 392.995 47.5345 393.975 48.7432 393.975H89.7783C90.9869 393.975 91.9668 392.995 91.9668 391.786C91.9668 390.578 90.9869 389.598 89.7783 389.598Z" fill="white" fill-opacity="0.6"/>
<path d="M77.1941 399.537H47.649C47.0446 399.537 46.5547 400.027 46.5547 400.631C46.5547 401.236 47.0446 401.726 47.649 401.726H77.1941C77.7985 401.726 78.2884 401.236 78.2884 400.631C78.2884 400.027 77.7985 399.537 77.1941 399.537Z" fill="white" fill-opacity="0.3"/>
<mask id="mask2_2_7458" style="mask-type:luminance" maskUnits="userSpaceOnUse" x="46" y="407" width="76" height="4">
<path d="M120.15 407.289H48.2662C47.321 407.289 46.5547 408.055 46.5547 409.001C46.5547 409.946 47.321 410.712 48.2662 410.712H120.15C121.096 410.712 121.862 409.946 121.862 409.001C121.862 408.055 121.096 407.289 120.15 407.289Z" fill="white"/>
</mask>
<g mask="url(#mask2_2_7458)">
<path d="M120.15 407.289H48.2662C47.321 407.289 46.5547 408.055 46.5547 409.001C46.5547 409.946 47.321 410.712 48.2662 410.712H120.15C121.096 410.712 121.862 409.946 121.862 409.001C121.862 408.055 121.096 407.289 120.15 407.289Z" fill="black" fill-opacity="0.2"/>
<path d="M95.5042 407.973H48.2662C47.699 407.973 47.2393 408.432 47.2393 409C47.2393 409.567 47.699 410.026 48.2662 410.026H95.5042C96.0714 410.026 96.5312 409.567 96.5312 409C96.5312 408.432 96.0714 407.973 95.5042 407.973Z" fill="#4B65FD" stroke="black" stroke-opacity="0.05" stroke-width="0.247119"/>
</g>
</g>
<mask id="mask3_2_7458" style="mask-type:luminance" maskUnits="userSpaceOnUse" x="0" y="39" width="137" height="312">
<path d="M0 39.9824H136.922V350.245H0V39.9824Z" fill="white"/>
</mask>
<g mask="url(#mask3_2_7458)">
<path d="M126.653 39.9824H10.2688C8.37826 39.9824 6.8457 41.515 6.8457 43.4055V55.7285C6.8457 57.619 8.37826 59.1515 10.2688 59.1515H126.653C128.543 59.1515 130.076 57.619 130.076 55.7285V43.4055C130.076 41.515 128.543 39.9824 126.653 39.9824Z" fill="black" fill-opacity="0.2"/>
<path d="M16.7423 52.5431C17.4333 52.5431 18.0808 52.3345 18.6196 51.9782L20.523 53.8859C20.6491 54.0076 20.8099 54.0685 20.9837 54.0685C21.3444 54.0685 21.6095 53.786 21.6095 53.4297C21.6095 53.2645 21.553 53.1037 21.4313 52.982L19.5409 51.083C19.932 50.5311 20.1624 49.8532 20.1624 49.1231C20.1624 47.2414 18.624 45.7031 16.7423 45.7031C14.865 45.7031 13.3223 47.2414 13.3223 49.1231C13.3223 51.0048 14.8606 52.5431 16.7423 52.5431ZM16.7423 51.6305C15.3647 51.6305 14.2349 50.5007 14.2349 49.1231C14.2349 47.7499 15.3647 46.6156 16.7423 46.6156C18.1199 46.6156 19.2498 47.7499 19.2498 49.1231C19.2498 50.5007 18.1199 51.6305 16.7423 51.6305Z" fill="white"/>
<path d="M27.9533 53.2423C29.4135 53.2423 30.3478 52.4948 30.3478 51.2954V51.2911C30.3478 50.3611 29.8089 49.8309 28.4922 49.5485L27.8099 49.3964C26.9973 49.2225 26.667 48.9183 26.667 48.4534V48.449C26.667 47.858 27.2102 47.5147 27.9446 47.5147C28.7051 47.5104 29.1962 47.8841 29.2788 48.3969L29.2875 48.4534H30.2305L30.2261 48.3925C30.1566 47.4191 29.2875 46.6673 27.9577 46.6673C26.6279 46.6673 25.6892 47.4147 25.6849 48.4968V48.5012C25.6849 49.4268 26.2325 50.0178 27.5057 50.2872L28.1924 50.435C29.0224 50.6132 29.3613 50.926 29.3613 51.4084V51.4128C29.3613 51.9951 28.7921 52.3949 27.9925 52.3949C27.1537 52.3949 26.5497 52.0298 26.4975 51.4606L26.4932 51.4128H25.5371L25.5415 51.4693C25.6284 52.5253 26.5367 53.2423 27.9533 53.2423ZM33.5028 53.1815C34.7109 53.1815 35.3627 52.4861 35.5192 51.8647L35.5278 51.8256L34.6196 51.8299L34.6022 51.8647C34.4892 52.1081 34.1285 52.4079 33.5245 52.4079C32.7466 52.4079 32.2512 51.8821 32.2338 50.9782H35.58V50.6479C35.58 49.2312 34.7717 48.2795 33.455 48.2795C32.1382 48.2795 31.2865 49.266 31.2865 50.7392V50.7435C31.2865 52.2384 32.1208 53.1815 33.5028 53.1815ZM33.4593 49.0531C34.0981 49.0531 34.5718 49.4616 34.6457 50.3046H32.2469C32.3294 49.492 32.8161 49.0531 33.4593 49.0531ZM37.9962 53.1684C38.622 53.1684 39.1174 52.899 39.3955 52.421H39.4694V53.0902H40.4037V49.8614C40.4037 48.8705 39.7345 48.2795 38.5481 48.2795C37.4747 48.2795 36.7316 48.7967 36.6186 49.5702L36.6143 49.6006H37.5225L37.5268 49.5832C37.6398 49.2486 37.9831 49.0574 38.5046 49.0574C39.1434 49.0574 39.4694 49.3442 39.4694 49.8614V50.2785L38.1917 50.3524C37.0662 50.4219 36.4317 50.913 36.4317 51.7561V51.7648C36.4317 52.6209 37.0966 53.1684 37.9962 53.1684ZM37.3704 51.7257V51.717C37.3704 51.2911 37.6659 51.0564 38.3178 51.0173L39.4694 50.9434V51.3476C39.4694 51.956 38.9522 52.4166 38.2482 52.4166C37.7398 52.4166 37.3704 52.1602 37.3704 51.7257ZM41.7335 53.0902H42.6765V50.2699C42.6765 49.5876 43.1675 49.1443 43.8889 49.1443C44.0671 49.1443 44.2279 49.1661 44.3974 49.2008V48.3317C44.3018 48.31 44.1366 48.2882 43.9845 48.2882C43.3544 48.2882 42.9155 48.5837 42.746 49.0835H42.6765V48.3708H41.7335V53.0902ZM47.1612 53.1815C48.3302 53.1815 49.0038 52.5513 49.1732 51.6344L49.1819 51.5953H48.278L48.2693 51.617C48.1172 52.1255 47.7522 52.3949 47.1612 52.3949C46.3833 52.3949 45.901 51.7604 45.901 50.7175V50.7088C45.901 49.6919 46.3746 49.0661 47.1612 49.0661C47.787 49.0661 48.1694 49.4138 48.2737 49.8787L48.278 49.8918L49.1819 49.8874V49.8657C49.0516 48.9488 48.3432 48.2795 47.1569 48.2795C45.7793 48.2795 44.9406 49.2139 44.9406 50.7088V50.7175C44.9406 52.2428 45.7836 53.1815 47.1612 53.1815ZM50.2944 53.0902H51.2374V50.322C51.2374 49.5615 51.6677 49.0878 52.3586 49.0878C53.0496 49.0878 53.3755 49.4746 53.3755 50.2568V53.0902H54.3142V50.0352C54.3142 48.9097 53.7319 48.2795 52.6759 48.2795C51.9892 48.2795 51.5373 48.5837 51.307 49.0878H51.2374V46.5195H50.2944V53.0902Z" fill="white" fill-opacity="0.6"/>
<path d="M37.4851 67.3672H7.93997C7.33562 67.3672 6.8457 67.8571 6.8457 68.4614C6.8457 69.0658 7.33562 69.5557 7.93997 69.5557H37.4851C38.0895 69.5557 38.5794 69.0658 38.5794 68.4614C38.5794 67.8571 38.0895 67.3672 37.4851 67.3672Z" fill="white" fill-opacity="0.3"/>
<path d="M126.653 75.0332H10.2688C8.37826 75.0332 6.8457 76.5658 6.8457 78.4563V90.7793C6.8457 92.6698 8.37826 94.2023 10.2688 94.2023H126.653C128.543 94.2023 130.076 92.6698 130.076 90.7793V78.4563C130.076 76.5658 128.543 75.0332 126.653 75.0332Z" fill="white" fill-opacity="0.1"/>
<mask id="mask4_2_7458" style="mask-type:luminance" maskUnits="userSpaceOnUse" x="13" y="76" width="56" height="17">
<path d="M13.6914 76.4023H68.7019V92.8329H13.6914V76.4023Z" fill="white"/>
</mask>
<g mask="url(#mask4_2_7458)">
<path d="M21.9086 90.78H15.7471C15.3706 90.78 15.0625 90.472 15.0625 90.0954V79.1417C15.0625 78.7651 15.3706 78.457 15.7471 78.457H21.9086V90.78Z" stroke="white" stroke-opacity="0.6" stroke-width="0.821532" stroke-miterlimit="10" stroke-linecap="round" stroke-linejoin="round"/>
<path d="M28.0707 90.78H21.9092V78.457H28.0707C28.4472 78.457 28.7553 78.7651 28.7553 79.1416V90.0954C28.7553 90.4719 28.4472 90.78 28.0707 90.78Z" stroke="white" stroke-opacity="0.6" stroke-width="0.821532" stroke-miterlimit="10" stroke-linecap="round" stroke-linejoin="round"/>
<path d="M16.4326 84.6191H20.5403" stroke="white" stroke-opacity="0.6" stroke-width="0.821532" stroke-miterlimit="10"/>
<path d="M16.4326 81.8809H20.5403" stroke="white" stroke-opacity="0.6" stroke-width="0.821532" stroke-miterlimit="10"/>
<path d="M16.4326 87.3574H20.5403" stroke="white" stroke-opacity="0.6" stroke-width="0.821532" stroke-miterlimit="10"/>
<path d="M23.2764 84.6191H27.384" stroke="white" stroke-opacity="0.6" stroke-width="0.821532" stroke-miterlimit="10"/>
<path d="M23.2764 81.8809H27.384" stroke="white" stroke-opacity="0.6" stroke-width="0.821532" stroke-miterlimit="10"/>
<path d="M67.6072 83.5234H38.062C37.4577 83.5234 36.9678 84.0134 36.9678 84.6177C36.9678 85.222 37.4577 85.712 38.062 85.712H67.6072C68.2116 85.712 68.7015 85.222 68.7015 84.6177C68.7015 84.0134 68.2116 83.5234 67.6072 83.5234Z" fill="white" fill-opacity="0.3"/>
</g>
<mask id="mask5_2_7458" style="mask-type:luminance" maskUnits="userSpaceOnUse" x="13" y="101" width="70" height="17">
<path d="M13.6914 101.047H82.8627V117.477H13.6914V101.047Z" fill="white"/>
</mask>
<g mask="url(#mask5_2_7458)">
<path d="M21.2251 102.414C19.6231 102.414 17.6035 103.591 17.6377 106.631L15.091 109.931C15.0157 110.026 15.1047 110.15 15.2416 110.15L16.9394 110.992C17.0284 111.622 17.357 113.456 17.535 114.374C17.5966 114.661 20.4035 114.442 20.4035 114.442L21.2251 116.106" stroke="white" stroke-opacity="0.6" stroke-width="0.821532" stroke-miterlimit="10" stroke-linecap="round" stroke-linejoin="round"/>
<path fill-rule="evenodd" clip-rule="evenodd" d="M24.544 102.553C24.6205 102.34 24.5093 102.105 24.2957 102.028C24.0821 101.952 23.847 102.063 23.7706 102.276L23.0723 104.228C22.9958 104.441 23.107 104.676 23.3206 104.753C23.5342 104.829 23.7693 104.718 23.8457 104.504L24.544 102.553ZM28.7873 104.62C28.9689 104.484 29.0059 104.227 28.87 104.045C28.734 103.864 28.4766 103.827 28.295 103.963L25.9536 105.715C25.772 105.851 25.735 106.109 25.8709 106.29C26.0068 106.472 26.2643 106.509 26.4459 106.373L28.7873 104.62ZM26.1079 109.141C26.1245 108.915 26.3214 108.745 26.5476 108.762L28.7863 108.926C29.0125 108.943 29.1825 109.14 29.1659 109.366C29.1493 109.592 28.9524 109.762 28.7262 109.745L26.4875 109.581C26.2612 109.565 26.0913 109.368 26.1079 109.141ZM21.7192 112.897C21.4923 112.897 21.3084 113.081 21.3084 113.307C21.3084 113.534 21.4923 113.718 21.7192 113.718H23.5197C23.7466 113.718 23.9305 113.534 23.9305 113.307C23.9305 113.081 23.7466 112.897 23.5197 112.897H21.7192ZM21.3084 111.541C21.3084 111.314 21.4923 111.13 21.7192 111.13H21.8276C20.9244 110.372 19.6878 108.708 20.6983 107.378C21.6841 106.084 23.5531 106.084 24.5389 107.378C25.5484 108.707 24.3201 110.373 23.4148 111.13H23.5197C23.7466 111.13 23.9305 111.314 23.9305 111.541C23.9305 111.768 23.7466 111.951 23.5197 111.951H21.7192C21.4923 111.951 21.3084 111.768 21.3084 111.541ZM23.0353 111.13V109.379C23.2246 109.242 23.3478 109.02 23.3478 108.768C23.3478 108.352 23.0106 108.015 22.5947 108.015C22.1788 108.015 21.8416 108.352 21.8416 108.768C21.8416 109.045 21.9911 109.287 22.2138 109.418V111.13H23.0353ZM22.58 108.701C22.5858 108.701 22.5917 108.7 22.5977 108.7H22.5947C22.5897 108.7 22.5847 108.7 22.58 108.701Z" fill="white" fill-opacity="0.6"/>
<path d="M81.4716 107.873H38.3585C37.5904 107.873 36.9678 108.496 36.9678 109.264C36.9678 110.032 37.5904 110.655 38.3585 110.655H81.4716C82.2397 110.655 82.8624 110.032 82.8624 109.264C82.8624 108.496 82.2397 107.873 81.4716 107.873Z" fill="white" fill-opacity="0.3"/>
</g>
<mask id="mask6_2_7458" style="mask-type:luminance" maskUnits="userSpaceOnUse" x="13" y="125" width="70" height="18">
<path d="M13.6914 125.693H82.8627V142.124H13.6914V125.693Z" fill="white"/>
</mask>
<g mask="url(#mask6_2_7458)">
<path d="M21.9096 127.062L15.0635 133.908L21.9096 140.755L28.7557 133.908L21.9096 127.062Z" stroke="white" stroke-opacity="0.6" stroke-width="0.821532" stroke-miterlimit="10" stroke-linecap="round" stroke-linejoin="round"/>
<path fill-rule="evenodd" clip-rule="evenodd" d="M20.1963 134.312C20.0359 134.151 19.7758 134.151 19.6154 134.312C19.455 134.472 19.455 134.732 19.6154 134.893L21.6901 136.967C21.7672 137.044 21.8716 137.088 21.9806 137.088C22.0895 137.088 22.194 137.044 22.271 136.967L24.3457 134.893C24.5062 134.732 24.5062 134.472 24.3457 134.312C24.1853 134.151 23.9252 134.151 23.7648 134.312L22.3933 135.683V130.798C22.3933 130.571 22.2094 130.387 21.9825 130.387C21.7556 130.387 21.5717 130.571 21.5717 130.798V135.687L20.1963 134.312Z" fill="white" fill-opacity="0.6"/>
<path d="M81.4716 132.518H38.3585C37.5904 132.518 36.9678 133.14 36.9678 133.908C36.9678 134.676 37.5904 135.299 38.3585 135.299H81.4716C82.2397 135.299 82.8624 134.676 82.8624 133.908C82.8624 133.14 82.2397 132.518 81.4716 132.518Z" fill="white" fill-opacity="0.3"/>
</g>
<mask id="mask7_2_7458" style="mask-type:luminance" maskUnits="userSpaceOnUse" x="13" y="174" width="56" height="18">
<path d="M13.6914 174.986H68.7019V191.417H13.6914V174.986Z" fill="white"/>
</mask>
<g mask="url(#mask7_2_7458)">
<mask id="mask8_2_7458" style="mask-type:luminance" maskUnits="userSpaceOnUse" x="13" y="174" width="18" height="18">
<path d="M13.6914 174.986H30.122V191.417H13.6914V174.986Z" fill="white"/>
</mask>
<g mask="url(#mask8_2_7458)">
<path d="M29.7802 183.201C29.7802 187.549 26.2554 191.074 21.9072 191.074C17.5591 191.074 14.0342 187.549 14.0342 183.201C14.0342 178.853 17.5591 175.328 21.9072 175.328C26.2554 175.328 29.7802 178.853 29.7802 183.201Z" stroke="white" stroke-opacity="0.2" stroke-width="0.68461"/>
<path d="M23.8503 186.271C22.8284 186.87 21.4233 186.932 20.0097 186.317C18.8651 185.823 17.9154 184.958 17.3066 183.97C17.5988 184.217 17.9397 184.415 18.305 184.588C19.7649 185.282 21.2244 185.234 22.2516 184.589C22.251 184.589 22.2505 184.588 22.2501 184.588C20.7889 183.451 19.547 181.969 18.6216 180.758C18.4267 180.561 18.2806 180.314 18.1345 180.091C19.2547 181.129 21.0325 182.438 21.6655 182.809C20.3263 181.376 19.133 179.597 19.1816 179.647C21.3003 181.821 23.2729 183.056 23.2729 183.056C23.3382 183.093 23.3885 183.125 23.429 183.152C23.4717 183.042 23.5092 182.928 23.5407 182.809C23.8816 181.549 23.4921 180.116 22.6397 178.93C24.6121 180.141 25.7812 182.414 25.294 184.316C25.2813 184.367 25.2675 184.418 25.2526 184.468C25.2583 184.475 25.264 184.482 25.2697 184.489C26.2436 185.724 25.9758 187.034 25.8541 186.787C25.3257 185.738 24.3476 186.059 23.8503 186.271Z" fill="white"/>
</g>
<path d="M67.6072 182.107H38.062C37.4577 182.107 36.9678 182.597 36.9678 183.202C36.9678 183.806 37.4577 184.296 38.062 184.296H67.6072C68.2116 184.296 68.7015 183.806 68.7015 183.202C68.7015 182.597 68.2116 182.107 67.6072 182.107Z" fill="white" fill-opacity="0.3"/>
</g>
<mask id="mask9_2_7458" style="mask-type:luminance" maskUnits="userSpaceOnUse" x="13" y="198" width="62" height="17">
<path d="M13.6914 198.262H74.5183V214.692H13.6914V198.262Z" fill="white"/>
</mask>
<g mask="url(#mask9_2_7458)">
<path d="M29.7802 206.477C29.7802 210.825 26.2554 214.35 21.9072 214.35C17.5591 214.35 14.0342 210.825 14.0342 206.477C14.0342 202.129 17.5591 198.604 21.9072 198.604C26.2554 198.604 29.7802 202.129 29.7802 206.477Z" stroke="white" stroke-opacity="0.2" stroke-width="0.68461"/>
<mask id="mask10_2_7458" style="mask-type:luminance" maskUnits="userSpaceOnUse" x="17" y="201" width="10" height="10">
<path d="M17.4307 201.994H26.3928V210.956H17.4307V201.994Z" fill="white"/>
</mask>
<g mask="url(#mask10_2_7458)">
<path d="M24.4453 206.076L21.5117 209.009L22.7132 210.211L25.6467 207.277L24.4453 206.076Z" fill="white"/>
<path fill-rule="evenodd" clip-rule="evenodd" d="M18.3125 203.458L20.6488 205.794L20.6487 205.808C20.6487 206.138 20.9162 206.406 21.2462 206.406C21.5761 206.406 21.8436 206.138 21.8436 205.808C21.8436 205.478 21.5761 205.211 21.2462 205.211H21.2275L18.8972 202.881L23.1105 203.678H23.1142L23.9133 206.613L22.0462 208.48L19.1111 207.678L18.3125 203.458Z" fill="white"/>
</g>
<path d="M73.1281 205.086H38.3595C37.5914 205.086 36.9688 205.709 36.9688 206.477C36.9688 207.245 37.5914 207.867 38.3595 207.867H73.1281C73.8962 207.867 74.5188 207.245 74.5188 206.477C74.5188 205.709 73.8962 205.086 73.1281 205.086Z" fill="white" fill-opacity="0.3"/>
</g>
<mask id="mask11_2_7458" style="mask-type:luminance" maskUnits="userSpaceOnUse" x="13" y="221" width="66" height="17">
<path d="M13.6914 221.539H78.6905V237.97H13.6914V221.539Z" fill="white"/>
</mask>
<g mask="url(#mask11_2_7458)">
<mask id="mask12_2_7458" style="mask-type:luminance" maskUnits="userSpaceOnUse" x="13" y="221" width="18" height="17">
<path d="M13.6914 221.539H30.122V237.97H13.6914V221.539Z" fill="white"/>
</mask>
<g mask="url(#mask12_2_7458)">
<path d="M29.7802 229.756C29.7802 234.104 26.2554 237.629 21.9072 237.629C17.5591 237.629 14.0342 234.104 14.0342 229.756C14.0342 225.408 17.5591 221.883 21.9072 221.883C26.2554 221.883 29.7802 225.408 29.7802 229.756Z" stroke="white" stroke-opacity="0.2" stroke-width="0.68461"/>
<path d="M23.8503 232.823C22.8284 233.422 21.4233 233.483 20.0097 232.869C18.8651 232.375 17.9154 231.51 17.3066 230.522C17.5988 230.769 17.9397 230.967 18.305 231.139C19.7649 231.834 21.2244 231.786 22.2516 231.141C22.251 231.141 22.2505 231.14 22.2501 231.139C20.7889 230.003 19.547 228.521 18.6216 227.31C18.4267 227.112 18.2806 226.865 18.1345 226.643C19.2547 227.681 21.0325 228.99 21.6655 229.361C20.3263 227.928 19.133 226.149 19.1816 226.198C21.3003 228.372 23.2729 229.608 23.2729 229.608C23.3382 229.645 23.3885 229.676 23.429 229.704C23.4717 229.594 23.5092 229.479 23.5407 229.361C23.8816 228.101 23.4921 226.668 22.6397 225.482C24.6121 226.693 25.7812 228.965 25.294 230.868C25.2813 230.919 25.2675 230.97 25.2526 231.019C25.2583 231.026 25.264 231.033 25.2697 231.041C26.2436 232.276 25.9758 233.585 25.8541 233.338C25.3257 232.289 24.3476 232.61 23.8503 232.823Z" fill="white"/>
</g>
<path d="M77.2994 228.363H38.3585C37.5904 228.363 36.9678 228.986 36.9678 229.754C36.9678 230.522 37.5904 231.145 38.3585 231.145H77.2994C78.0675 231.145 78.6902 230.522 78.6902 229.754C78.6902 228.986 78.0675 228.363 77.2994 228.363Z" fill="white" fill-opacity="0.3"/>
</g>
<mask id="mask13_2_7458" style="mask-type:luminance" maskUnits="userSpaceOnUse" x="13" y="274" width="48" height="18">
<path d="M13.6914 274.938H60.6108V291.368H13.6914V274.938Z" fill="white"/>
</mask>
<g mask="url(#mask13_2_7458)">
<mask id="mask14_2_7458" style="mask-type:luminance" maskUnits="userSpaceOnUse" x="13" y="274" width="18" height="18">
<path d="M13.6914 274.938H30.122V291.368H13.6914V274.938Z" fill="white"/>
</mask>
<g mask="url(#mask14_2_7458)">
<path d="M29.7802 283.152C29.7802 287.5 26.2554 291.025 21.9072 291.025C17.5591 291.025 14.0342 287.5 14.0342 283.152C14.0342 278.804 17.5591 275.279 21.9072 275.279C26.2554 275.279 29.7802 278.804 29.7802 283.152Z" stroke="white" stroke-opacity="0.2" stroke-width="0.68461"/>
<path d="M23.8503 286.224C22.8284 286.823 21.4233 286.884 20.0097 286.27C18.8651 285.776 17.9154 284.911 17.3066 283.923C17.5988 284.17 17.9397 284.367 18.305 284.54C19.7649 285.234 21.2244 285.187 22.2516 284.542C22.251 284.541 22.2505 284.541 22.2501 284.54C20.7889 283.404 19.547 281.921 18.6216 280.711C18.4267 280.513 18.2806 280.266 18.1345 280.044C19.2547 281.081 21.0325 282.391 21.6655 282.762C20.3263 281.328 19.133 279.55 19.1816 279.599C21.3003 281.773 23.2729 283.009 23.2729 283.009C23.3382 283.046 23.3885 283.077 23.429 283.105C23.4717 282.995 23.5092 282.88 23.5407 282.762C23.8816 281.502 23.4921 280.069 22.6397 278.883C24.6121 280.093 25.7812 282.366 25.294 284.269C25.2813 284.32 25.2675 284.37 25.2526 284.42C25.2583 284.427 25.264 284.434 25.2697 284.442C26.2436 285.677 25.9758 286.986 25.8541 286.739C25.3257 285.69 24.3476 286.011 23.8503 286.224Z" fill="white"/>
</g>
<path d="M59.2197 281.762H38.3585C37.5904 281.762 36.9678 282.384 36.9678 283.152C36.9678 283.921 37.5904 284.543 38.3585 284.543H59.2197C59.9878 284.543 60.6105 283.921 60.6105 283.152C60.6105 282.384 59.9878 281.762 59.2197 281.762Z" fill="white" fill-opacity="0.3"/>
</g>
<mask id="mask15_2_7458" style="mask-type:luminance" maskUnits="userSpaceOnUse" x="13" y="298" width="56" height="17">
<path d="M13.6914 298.215H68.7019V314.645H13.6914V298.215Z" fill="white"/>
</mask>
<g mask="url(#mask15_2_7458)">
<path d="M29.7802 306.43C29.7802 310.778 26.2554 314.303 21.9072 314.303C17.5591 314.303 14.0342 310.778 14.0342 306.43C14.0342 302.082 17.5591 298.557 21.9072 298.557C26.2554 298.557 29.7802 302.082 29.7802 306.43Z" stroke="white" stroke-opacity="0.2" stroke-width="0.68461"/>
<mask id="mask16_2_7458" style="mask-type:luminance" maskUnits="userSpaceOnUse" x="17" y="301" width="10" height="10">
<path d="M17.4307 301.949H26.3928V310.911H17.4307V301.949Z" fill="white"/>
</mask>
<g mask="url(#mask16_2_7458)">
<path d="M24.4453 306.031L21.5117 308.964L22.7132 310.166L25.6467 307.232L24.4453 306.031Z" fill="white"/>
<path fill-rule="evenodd" clip-rule="evenodd" d="M18.3135 303.412L20.6498 305.748L20.6496 305.762C20.6496 306.092 20.9171 306.36 21.2471 306.36C21.5771 306.36 21.8446 306.092 21.8446 305.762C21.8446 305.432 21.5771 305.165 21.2471 305.165H21.2284L18.898 302.834L23.1114 303.632H23.1151L23.9143 306.567L22.0471 308.434L19.112 307.631L18.3135 303.412Z" fill="white"/>
</g>
<path d="M67.6082 305.336H38.063C37.4587 305.336 36.9688 305.826 36.9688 306.43C36.9688 307.035 37.4587 307.524 38.063 307.524H67.6082C68.2125 307.524 68.7024 307.035 68.7024 306.43C68.7024 305.826 68.2125 305.336 67.6082 305.336Z" fill="white" fill-opacity="0.3"/>
</g>
<mask id="mask17_2_7458" style="mask-type:luminance" maskUnits="userSpaceOnUse" x="13" y="321" width="76" height="17">
<path d="M13.6914 321.492H88.4257V337.923H13.6914V321.492Z" fill="white"/>
</mask>
<g mask="url(#mask17_2_7458)">
<path d="M29.7802 329.709C29.7802 334.057 26.2554 337.582 21.9072 337.582C17.5591 337.582 14.0342 334.057 14.0342 329.709C14.0342 325.361 17.5591 321.836 21.9072 321.836C26.2554 321.836 29.7802 325.361 29.7802 329.709Z" stroke="white" stroke-opacity="0.2" stroke-width="0.68461"/>
<path d="M20.4025 334.19C21.2188 334.19 21.8813 333.521 21.8813 332.697V331.203H20.4025C19.5862 331.203 18.9238 331.872 18.9238 332.697C18.9238 333.521 19.5862 334.19 20.4025 334.19Z" fill="white"/>
<path d="M18.9238 329.711C18.9238 328.886 19.5862 328.217 20.4025 328.217H21.8813V331.205H20.4025C19.5862 331.205 18.9238 330.535 18.9238 329.711Z" fill="white"/>
<path d="M18.9258 326.723C18.9258 325.899 19.5883 325.23 20.4046 325.23H21.8833V328.217H20.4046C19.5883 328.217 18.9258 327.548 18.9258 326.723Z" fill="white"/>
<path d="M21.8818 325.229H23.3605C24.1768 325.229 24.8393 325.898 24.8393 326.723C24.8393 327.547 24.1768 328.216 23.3605 328.216H21.8818V325.229Z" fill="white"/>
<path d="M24.8393 329.711C24.8393 330.535 24.1768 331.205 23.3605 331.205C22.5442 331.205 21.8818 330.535 21.8818 329.711C21.8818 328.886 22.5442 328.217 23.3605 328.217C24.1768 328.217 24.8393 328.886 24.8393 329.711Z" fill="white"/>
<path d="M87.0356 328.318H38.3595C37.5914 328.318 36.9688 328.941 36.9688 329.709C36.9688 330.477 37.5914 331.1 38.3595 331.1H87.0356C87.8037 331.1 88.4263 330.477 88.4263 329.709C88.4263 328.941 87.8037 328.318 87.0356 328.318Z" fill="white" fill-opacity="0.3"/>
</g>
</g>
<mask id="mask18_2_7458" style="mask-type:luminance" maskUnits="userSpaceOnUse" x="13" y="13" width="38" height="9">
<path d="M13.6943 13.6934H50.6632V21.9087H13.6943V13.6934Z" fill="white"/>
</mask>
<g mask="url(#mask18_2_7458)">
<path d="M21.9097 17.801C21.9097 15.5324 20.0706 13.6934 17.802 13.6934C15.5334 13.6934 13.6943 15.5324 13.6943 17.801C13.6943 20.0696 15.5334 21.9087 17.802 21.9087C20.0706 21.9087 21.9097 20.0696 21.9097 17.801Z" fill="#EB6A5D"/>
<path d="M36.2866 17.801C36.2866 15.5324 34.4475 13.6934 32.1789 13.6934C29.9103 13.6934 28.0713 15.5324 28.0713 17.801C28.0713 20.0696 29.9103 21.9087 32.1789 21.9087C34.4475 21.9087 36.2866 20.0696 36.2866 17.801Z" fill="#F3BE4F"/>
<path d="M50.6636 17.801C50.6636 15.5324 48.8245 13.6934 46.5559 13.6934C44.2873 13.6934 42.4482 15.5324 42.4482 17.801C42.4482 20.0696 44.2873 21.9087 46.5559 21.9087C48.8245 21.9087 50.6636 20.0696 50.6636 17.801Z" fill="#64C354"/>
</g>
<path d="M136.921 0H694.193C697.974 0 701.04 3.0651 701.04 6.8461V421.035C701.04 424.816 697.974 427.881 694.193 427.881H136.921V0Z" fill="#1A164A" fill-opacity="0.63"/>
<mask id="mask19_2_7458" style="mask-type:luminance" maskUnits="userSpaceOnUse" x="136" y="0" width="566" height="428">
<path d="M136.921 0H694.193C697.974 0 701.04 3.0651 701.04 6.8461V421.035C701.04 424.816 697.974 427.881 694.193 427.881H136.921V0Z" fill="#1A164A"/>
</mask>
<g mask="url(#mask19_2_7458)">
<path fill-rule="evenodd" clip-rule="evenodd" d="M650.538 156.549C676.763 92.4106 720.127 -17.9112 607.968 -82.0911C495.809 -146.271 443.632 -105.175 394.62 -86.2478C345.608 -67.3205 224.366 -54.9964 242.602 21.5107C260.838 98.0177 264.888 231.812 352.007 231.814C439.126 231.817 427.443 195.555 483.395 189.136C539.346 182.718 624.312 220.687 650.538 156.549Z" fill="url(#paint0_linear_2_7458)"/>
<path fill-rule="evenodd" clip-rule="evenodd" d="M650.538 156.549C676.763 92.4106 720.127 -17.9112 607.968 -82.0911C495.809 -146.271 443.632 -105.175 394.62 -86.2478C345.608 -67.3205 224.366 -54.9964 242.602 21.5107C260.838 98.0177 264.888 231.812 352.007 231.814C439.126 231.817 427.443 195.555 483.395 189.136C539.346 182.718 624.312 220.687 650.538 156.549Z" fill="#14BEFD"/>
<path fill-rule="evenodd" clip-rule="evenodd" d="M261.35 -54.8011C236.747 17.2979 196.344 141.199 323.617 204.327C450.891 267.456 505.476 218.954 558.033 194.989C610.59 171.023 742.846 149.598 717.848 66.8222C692.85 -15.9543 679.688 -162.527 584.077 -156.854C488.465 -151.18 503.65 -112.145 442.663 -101.455C381.675 -90.7654 285.953 -126.9 261.35 -54.8011Z" fill="url(#paint1_linear_2_7458)"/>
<g opacity="0.5">
<path fill-rule="evenodd" clip-rule="evenodd" d="M270.714 -66.4781C246.624 4.11967 207.062 125.441 331.685 187.255C456.308 249.069 509.757 201.577 561.22 178.111C612.682 154.644 742.185 133.666 717.707 52.6127C693.229 -28.4403 680.341 -171.961 586.721 -166.406C493.101 -160.85 507.969 -122.628 448.252 -112.161C388.534 -101.694 294.805 -137.076 270.714 -66.4781Z" stroke="url(#paint2_linear_2_7458)" stroke-width="6.78117" stroke-linecap="round" stroke-dasharray="67.81 33.91"/>
</g>
<g opacity="0.2">
<path fill-rule="evenodd" clip-rule="evenodd" d="M300.008 -54.1693C278.911 8.37827 244.307 115.88 356.711 171.761C469.114 227.642 516.756 185.851 562.798 165.393C608.839 144.935 724.991 127.285 702.386 55.0746C679.781 -17.1351 667.107 -144.763 583.064 -140.544C499.022 -136.324 512.668 -102.246 459.113 -93.403C405.558 -84.5594 321.104 -116.716 300.008 -54.1693Z" stroke="url(#paint3_linear_2_7458)" stroke-width="3.39059" stroke-linecap="round" stroke-dasharray="33.91 16.95"/>
</g>
<path fill-rule="evenodd" clip-rule="evenodd" d="M266.545 -92.1612C241.655 -19.2182 200.778 106.134 329.541 170.001C458.305 233.869 513.529 184.799 566.701 160.553C619.873 136.307 753.678 114.632 728.388 30.8859C703.097 -52.8598 689.78 -201.147 593.05 -195.408C496.32 -189.668 511.682 -150.176 449.981 -139.361C388.279 -128.546 291.436 -165.104 266.545 -92.1612Z" stroke="url(#paint4_linear_2_7458)" stroke-width="10.1718" stroke-linecap="round" stroke-dasharray="67.81 33.91"/>
</g>
<path d="M292.958 62.1035H159.651C158.443 62.1035 157.463 63.0834 157.463 64.292V68.2595C157.463 69.4681 158.443 70.448 159.651 70.448H292.958C294.167 70.448 295.147 69.4681 295.147 68.2595V64.292C295.147 63.0834 294.167 62.1035 292.958 62.1035Z" fill="white" fill-opacity="0.6"/>
<path d="M219.249 81.5742H159.651C158.443 81.5742 157.463 82.5541 157.463 83.7627V87.7302C157.463 88.9389 158.443 89.9187 159.651 89.9187H219.249C220.457 89.9187 221.437 88.9389 221.437 87.7302V83.7627C221.437 82.5541 220.457 81.5742 219.249 81.5742Z" fill="white" fill-opacity="0.6"/>
<path d="M285.411 101.045H158.854C158.086 101.045 157.463 101.668 157.463 102.436C157.463 103.204 158.086 103.826 158.854 103.826H285.411C286.179 103.826 286.802 103.204 286.802 102.436C286.802 101.668 286.179 101.045 285.411 101.045Z" fill="white" fill-opacity="0.3"/>
<path d="M252.034 114.951H158.854C158.086 114.951 157.463 115.574 157.463 116.342C157.463 117.11 158.086 117.733 158.854 117.733H252.034C252.802 117.733 253.424 117.11 253.424 116.342C253.424 115.574 252.802 114.951 252.034 114.951Z" fill="white" fill-opacity="0.3"/>
<path d="M268.722 128.859H158.854C158.086 128.859 157.463 129.482 157.463 130.25C157.463 131.018 158.086 131.641 158.854 131.641H268.722C269.49 131.641 270.113 131.018 270.113 130.25C270.113 129.482 269.49 128.859 268.722 128.859Z" fill="white" fill-opacity="0.3"/>
<mask id="mask20_2_7458" style="mask-type:luminance" maskUnits="userSpaceOnUse" x="486" y="62" width="131" height="68">
<path d="M486 62H617V130H486V62Z" fill="white"/>
</mask>
<g mask="url(#mask20_2_7458)">
<path d="M529.224 62H488.189C486.98 62 486 62.9798 486 64.1885V64.1885C486 65.3972 486.98 66.3771 488.189 66.3771H529.224C530.432 66.3771 531.412 65.3972 531.412 64.1885C531.412 62.9798 530.432 62 529.224 62Z" fill="white" fill-opacity="0.6"/>
<path d="M580.571 71.9395H487.391C486.623 71.9395 486 72.5621 486 73.3302C486 74.0983 486.623 74.7209 487.391 74.7209H580.571C581.339 74.7209 581.961 74.0983 581.961 73.3302C581.961 72.5621 581.339 71.9395 580.571 71.9395Z" fill="white" fill-opacity="0.3"/>
<path d="M607.873 80H493.127C489.191 80 486 83.1091 486 86.9444V123.056C486 126.891 489.191 130 493.127 130H607.873C611.809 130 615 126.891 615 123.056V86.9444C615 83.1091 611.809 80 607.873 80Z" fill="#5B0000" fill-opacity="0.22"/>
<path fill-rule="evenodd" clip-rule="evenodd" d="M508.693 118.623C516.255 118.623 522.385 112.492 522.385 104.93C522.385 97.3685 516.255 91.2383 508.693 91.2383C501.131 91.2383 495 97.3685 495 104.93C495 112.492 501.131 118.623 508.693 118.623Z" fill="white" fill-opacity="0.1" stroke="white" stroke-opacity="0.3" stroke-width="0.821532"/>
<mask id="mask21_2_7458" style="mask-type:luminance" maskUnits="userSpaceOnUse" x="500" y="96" width="17" height="18">
<path d="M500.48 96.7148H516.911V113.145H500.48V96.7148Z" fill="white"/>
</mask>
<g mask="url(#mask21_2_7458)">
<path d="M511.431 104.931L508.692 100.139L505.954 104.931L502.531 100.139L503.215 109.039H514.169L514.854 100.139L511.431 104.931Z" fill="#38F1B9" stroke="black" stroke-width="0.821532" stroke-miterlimit="10" stroke-linecap="round" stroke-linejoin="round"/>
<path fill-rule="evenodd" clip-rule="evenodd" d="M515.197 111.093H502.189C501.998 111.093 501.847 110.942 501.847 110.751V109.381C501.847 109.19 501.998 109.039 502.189 109.039H515.197C515.389 109.039 515.539 109.19 515.539 109.381V110.751C515.539 110.942 515.389 111.093 515.197 111.093Z" fill="white" stroke="black" stroke-width="0.821532" stroke-miterlimit="10" stroke-linecap="round" stroke-linejoin="round"/>
<path d="M502.533 100.139C502.911 100.139 503.217 99.8322 503.217 99.4541C503.217 99.076 502.911 98.7695 502.533 98.7695C502.155 98.7695 501.848 99.076 501.848 99.4541C501.848 99.8322 502.155 100.139 502.533 100.139Z" stroke="black" stroke-width="0.821532" stroke-miterlimit="10" stroke-linecap="round" stroke-linejoin="round"/>
<path d="M514.856 100.139C515.234 100.139 515.541 99.8322 515.541 99.4541C515.541 99.076 515.234 98.7695 514.856 98.7695C514.478 98.7695 514.171 99.076 514.171 99.4541C514.171 99.8322 514.478 100.139 514.856 100.139Z" stroke="black" stroke-width="0.821532" stroke-miterlimit="10" stroke-linecap="round" stroke-linejoin="round"/>
<path d="M508.697 100.139C509.075 100.139 509.381 99.8322 509.381 99.4541C509.381 99.076 509.075 98.7695 508.697 98.7695C508.319 98.7695 508.012 99.076 508.012 99.4541C508.012 99.8322 508.319 100.139 508.697 100.139Z" stroke="black" stroke-width="0.821532" stroke-miterlimit="10" stroke-linecap="round" stroke-linejoin="round"/>
</g>
<mask id="mask22_2_7458" style="mask-type:luminance" maskUnits="userSpaceOnUse" x="533" y="92" width="74" height="25">
<path d="M533 92.9297H606.253V116.934H533V92.9297Z" fill="white"/>
</mask>
<g mask="url(#mask22_2_7458)">
<path d="M577.504 107.99H534.391C533.623 107.99 533 108.613 533 109.381C533 110.149 533.623 110.772 534.391 110.772H577.504C578.272 110.772 578.895 110.149 578.895 109.381C578.895 108.613 578.272 107.99 577.504 107.99Z" fill="white" fill-opacity="0.3"/>
<mask id="mask23_2_7458" style="mask-type:luminance" maskUnits="userSpaceOnUse" x="533" y="113" width="69" height="4">
<path d="M599.749 113.51H534.711C533.766 113.51 533 114.276 533 115.221C533 116.167 533.766 116.933 534.711 116.933H599.749C600.695 116.933 601.461 116.167 601.461 115.221C601.461 114.276 600.695 113.51 599.749 113.51Z" fill="white"/>
</mask>
<g mask="url(#mask23_2_7458)">
<path d="M599.749 113.51H534.711C533.766 113.51 533 114.276 533 115.221C533 116.167 533.766 116.933 534.711 116.933H599.749C600.695 116.933 601.461 116.167 601.461 115.221C601.461 114.276 600.695 113.51 599.749 113.51Z" fill="black" fill-opacity="0.2"/>
<path d="M598.733 114.193H534.711C534.143 114.193 533.684 114.653 533.684 115.22C533.684 115.787 534.143 116.247 534.711 116.247H598.733C599.3 116.247 599.76 115.787 599.76 115.22C599.76 114.653 599.3 114.193 598.733 114.193Z" fill="#38F1B9" stroke="black" stroke-opacity="0.05" stroke-width="0.247119"/>
</g>
</g>
<path d="M536.275 94.6523H539.974V95.7897H536.275V94.6523ZM536.381 97.8413H540.58V99H534.999V91.559H540.431V92.7177H536.381V97.8413ZM541.23 99L543.728 95.7472L543.707 96.4594L541.325 93.3236H542.803L544.472 95.5559H543.909L545.588 93.3236H547.023L544.621 96.4594L544.631 95.7472L547.119 99H545.62L543.866 96.6295L544.419 96.7039L542.697 99H541.23ZM551.352 99.0744C550.892 99.0744 550.47 98.9681 550.087 98.7555C549.712 98.5429 549.41 98.224 549.184 97.7988C548.964 97.3665 548.854 96.8208 548.854 96.1618C548.854 95.4956 548.96 94.95 549.173 94.5248C549.393 94.0996 549.69 93.7842 550.066 93.5787C550.442 93.3661 550.87 93.2598 551.352 93.2598C551.912 93.2598 552.405 93.3803 552.83 93.6212C553.262 93.8622 553.602 94.1988 553.85 94.6311C554.105 95.0634 554.233 95.5736 554.233 96.1618C554.233 96.75 554.105 97.2638 553.85 97.7031C553.602 98.1354 553.262 98.472 552.83 98.713C552.405 98.9539 551.912 99.0744 551.352 99.0744ZM548.206 101.062V93.3236H549.471V94.663L549.428 96.1724L549.534 97.6819V101.062H548.206ZM551.203 97.937C551.522 97.937 551.806 97.8661 552.054 97.7244C552.309 97.5827 552.511 97.3772 552.66 97.1079C552.808 96.8386 552.883 96.5232 552.883 96.1618C552.883 95.7933 552.808 95.4779 552.66 95.2157C552.511 94.9464 552.309 94.7409 552.054 94.5992C551.806 94.4574 551.522 94.3866 551.203 94.3866C550.884 94.3866 550.597 94.4574 550.342 94.5992C550.087 94.7409 549.885 94.9464 549.736 95.2157C549.588 95.4779 549.513 95.7933 549.513 96.1618C549.513 96.5232 549.588 96.8386 549.736 97.1079C549.885 97.3772 550.087 97.5827 550.342 97.7244C550.597 97.8661 550.884 97.937 551.203 97.937ZM558.267 99.0744C557.637 99.0744 557.084 98.9504 556.609 98.7024C556.141 98.4472 555.776 98.1 555.514 97.6606C555.259 97.2212 555.132 96.7216 555.132 96.1618C555.132 95.5949 555.256 95.0952 555.504 94.663C555.759 94.2236 556.106 93.8799 556.545 93.6318C556.992 93.3838 557.499 93.2598 558.065 93.2598C558.618 93.2598 559.111 93.3803 559.543 93.6212C559.975 93.8622 560.316 94.2023 560.564 94.6417C560.812 95.0811 560.936 95.5984 560.936 96.1937C560.936 96.2504 560.932 96.3142 560.925 96.385C560.925 96.4559 560.921 96.5232 560.914 96.587H556.184V95.7047H560.213L559.692 95.9811C559.699 95.6551 559.632 95.3681 559.49 95.12C559.348 94.872 559.153 94.6771 558.905 94.5354C558.664 94.3937 558.384 94.3228 558.065 94.3228C557.74 94.3228 557.452 94.3937 557.204 94.5354C556.964 94.6771 556.772 94.8756 556.63 95.1307C556.496 95.3787 556.428 95.6728 556.428 96.013V96.2256C556.428 96.5657 556.506 96.8669 556.662 97.1291C556.818 97.3913 557.038 97.5933 557.321 97.735C557.605 97.8768 557.931 97.9476 558.299 97.9476C558.618 97.9476 558.905 97.898 559.16 97.7988C559.416 97.6996 559.642 97.5437 559.841 97.3311L560.553 98.1496C560.298 98.4472 559.975 98.6776 559.586 98.8405C559.203 98.9965 558.764 99.0744 558.267 99.0744ZM562.318 99V93.3236H563.583V94.8862L563.434 94.4291C563.604 94.0464 563.87 93.7559 564.232 93.5574C564.6 93.359 565.057 93.2598 565.603 93.2598V94.5248C565.546 94.5106 565.493 94.5035 565.443 94.5035C565.394 94.4964 565.344 94.4929 565.295 94.4929C564.791 94.4929 564.391 94.6417 564.093 94.9393C563.796 95.2299 563.647 95.6657 563.647 96.2468V99H562.318ZM569.181 99.0744C568.557 99.0744 568.075 98.915 567.735 98.5961C567.395 98.2701 567.225 97.7917 567.225 97.161V92.0692H568.553V97.1291C568.553 97.3984 568.621 97.6075 568.755 97.7563C568.897 97.9051 569.092 97.9795 569.34 97.9795C569.638 97.9795 569.886 97.9016 570.084 97.7457L570.456 98.6917C570.3 98.8193 570.109 98.915 569.882 98.9787C569.655 99.0425 569.422 99.0744 569.181 99.0744ZM566.289 94.4291V93.3661H570.074V94.4291H566.289ZM571.656 99V93.3236H572.984V99H571.656ZM572.325 92.3881C572.077 92.3881 571.872 92.3102 571.709 92.1543C571.553 91.9984 571.475 91.8106 571.475 91.5909C571.475 91.3641 571.553 91.1763 571.709 91.0275C571.872 90.8716 572.077 90.7936 572.325 90.7936C572.573 90.7936 572.775 90.868 572.931 91.0169C573.094 91.1586 573.176 91.3393 573.176 91.559C573.176 91.7929 573.098 91.9913 572.942 92.1543C572.786 92.3102 572.58 92.3881 572.325 92.3881ZM576.589 99.0744C576.114 99.0744 575.657 99.0142 575.217 98.8937C574.785 98.7661 574.441 98.6138 574.186 98.4366L574.696 97.4268C574.952 97.5898 575.256 97.7244 575.611 97.8307C575.965 97.937 576.319 97.9901 576.674 97.9901C577.092 97.9901 577.393 97.9335 577.577 97.8201C577.769 97.7067 577.864 97.5543 577.864 97.363C577.864 97.2071 577.8 97.0901 577.673 97.0122C577.545 96.9271 577.379 96.8634 577.173 96.8208C576.968 96.7783 576.737 96.7394 576.482 96.7039C576.234 96.6685 575.983 96.6224 575.728 96.5657C575.48 96.5019 575.253 96.4134 575.047 96.3C574.842 96.1795 574.675 96.0201 574.548 95.8216C574.42 95.6232 574.356 95.361 574.356 95.035C574.356 94.6736 574.459 94.3618 574.665 94.0996C574.87 93.8303 575.157 93.6248 575.526 93.483C575.901 93.3342 576.344 93.2598 576.854 93.2598C577.237 93.2598 577.623 93.3023 578.013 93.3874C578.403 93.4724 578.725 93.5929 578.98 93.7488L578.47 94.7586C578.201 94.5956 577.928 94.4858 577.652 94.4291C577.382 94.3653 577.113 94.3334 576.844 94.3334C576.44 94.3334 576.139 94.3937 575.94 94.5141C575.749 94.6346 575.653 94.787 575.653 94.9712C575.653 95.1413 575.717 95.2689 575.844 95.3539C575.972 95.4389 576.139 95.5063 576.344 95.5559C576.55 95.6055 576.776 95.648 577.024 95.6834C577.28 95.7118 577.531 95.7578 577.779 95.8216C578.027 95.8854 578.254 95.974 578.459 96.0874C578.672 96.1937 578.842 96.346 578.97 96.5445C579.097 96.7429 579.161 97.0016 579.161 97.3205C579.161 97.6748 579.055 97.9831 578.842 98.2453C578.637 98.5075 578.343 98.713 577.96 98.8618C577.577 99.0035 577.12 99.0744 576.589 99.0744ZM587.576 93.2598C588.03 93.2598 588.43 93.3484 588.777 93.5255C589.132 93.7027 589.408 93.9756 589.607 94.3441C589.805 94.7055 589.904 95.1732 589.904 95.7472V99H588.576V95.9173C588.576 95.4141 588.466 95.0386 588.246 94.7905C588.026 94.5425 587.711 94.4185 587.3 94.4185C587.009 94.4185 586.751 94.4822 586.524 94.6098C586.304 94.7374 586.131 94.9252 586.003 95.1732C585.883 95.4212 585.822 95.7366 585.822 96.1193V99H584.494V95.9173C584.494 95.4141 584.384 95.0386 584.164 94.7905C583.944 94.5425 583.629 94.4185 583.218 94.4185C582.927 94.4185 582.669 94.4822 582.442 94.6098C582.222 94.7374 582.049 94.9252 581.921 95.1732C581.801 95.4212 581.74 95.7366 581.74 96.1193V99H580.412V93.3236H581.677V94.833L581.453 94.3866C581.645 94.0181 581.921 93.7381 582.283 93.5468C582.651 93.3555 583.069 93.2598 583.537 93.2598C584.068 93.2598 584.529 93.3909 584.919 93.6531C585.316 93.9153 585.578 94.3122 585.705 94.8437L585.185 94.663C585.369 94.2378 585.674 93.8976 586.099 93.6425C586.524 93.3874 587.016 93.2598 587.576 93.2598Z" fill="white"/>
</g>
<path d="M136.921 43.2324H701.04V43.5747H136.921V43.2324Z" fill="white" fill-opacity="0.2"/>
<path d="M0 372.428H136.922V373.112H0V372.428Z" fill="white" fill-opacity="0.05"/>
<path d="M167.731 7.53125H147.877C146.365 7.53125 145.139 8.75729 145.139 10.2697V23.9619C145.139 25.4743 146.365 26.7003 147.877 26.7003H167.731C169.243 26.7003 170.469 25.4743 170.469 23.9619V10.2697C170.469 8.75729 169.243 7.53125 167.731 7.53125Z" fill="black" fill-opacity="0.2"/>
<path d="M154.084 21.5693H161.519C162.462 21.5693 162.953 21.0826 162.953 20.1526V14.864C162.953 13.934 162.462 13.4473 161.519 13.4473H154.084C153.145 13.4473 152.654 13.9296 152.654 14.864V20.1526C152.654 21.0826 153.145 21.5693 154.084 21.5693ZM154.14 20.7045C153.74 20.7045 153.519 20.496 153.519 20.0744V14.9422C153.519 14.5207 153.74 14.3121 154.14 14.3121H156.122V20.7045H154.14ZM161.463 14.3121C161.862 14.3121 162.084 14.5207 162.084 14.9422V20.0744C162.084 20.496 161.862 20.7045 161.463 20.7045H156.943V14.3121H161.463ZM155.27 15.9026C155.427 15.9026 155.557 15.7679 155.557 15.6201C155.557 15.4724 155.427 15.342 155.27 15.342H154.379C154.223 15.342 154.092 15.4724 154.092 15.6201C154.092 15.7679 154.223 15.9026 154.379 15.9026H155.27ZM155.27 17.0716C155.427 17.0716 155.557 16.9412 155.557 16.7891C155.557 16.6413 155.427 16.511 155.27 16.511H154.379C154.223 16.511 154.092 16.6413 154.092 16.7891C154.092 16.9412 154.223 17.0716 154.379 17.0716H155.27ZM155.27 18.2362C155.427 18.2362 155.557 18.1102 155.557 17.9581C155.557 17.8103 155.427 17.6843 155.27 17.6843H154.379C154.223 17.6843 154.092 17.8103 154.092 17.9581C154.092 18.1102 154.223 18.2362 154.379 18.2362H155.27Z" fill="white"/>
<g clip-path="url(#clip1_2_7458)">
<path d="M535.504 27.7134C535.349 27.8376 535.063 28.0051 534.647 28.216C534.229 28.4268 533.719 28.6138 533.115 28.7744C532.511 28.9349 531.843 29.0103 531.11 28.9978C529.993 28.9726 528.993 28.7772 528.115 28.4114C527.234 28.0456 526.489 27.5458 525.879 26.9134C525.269 26.281 524.802 25.555 524.481 24.7355C524.16 23.916 524 23.042 524 22.1108C524 21.068 524.163 20.113 524.491 19.2447C524.819 18.3763 525.288 17.6252 525.898 16.9928C526.507 16.3603 527.237 15.8703 528.084 15.5227C528.932 15.1751 529.869 15.002 530.898 15.002C531.849 15.002 532.69 15.1262 533.423 15.3747C534.155 15.6232 534.752 15.8899 535.215 16.1747L534.116 18.7253C533.796 18.4894 533.368 18.2451 532.835 17.9896C532.301 17.7355 531.688 17.6085 530.995 17.6085C530.456 17.6085 529.938 17.7174 529.444 17.9337C528.95 18.1515 528.512 18.4587 528.133 18.8552C527.755 19.2531 527.455 19.7152 527.237 20.2415C527.019 20.7692 526.909 21.343 526.909 21.9629C526.909 22.6204 527.009 23.2221 527.208 23.768C527.408 24.3139 527.693 24.783 528.065 25.1739C528.438 25.5648 528.885 25.8663 529.405 26.0771C529.925 26.288 530.514 26.3941 531.168 26.3941C531.926 26.3941 532.574 26.2768 533.115 26.0408C533.654 25.8049 534.066 25.5564 534.348 25.2967L535.504 27.7162V27.7134Z" fill="white"/>
<path d="M540.015 22.0181C540.015 21.0758 540.201 20.1823 540.574 19.3377C540.947 18.4944 541.463 17.7461 542.125 17.0941C542.787 16.4422 543.554 15.9312 544.427 15.5584C545.3 15.1857 546.238 15 547.241 15C548.244 15 549.161 15.1857 550.034 15.5584C550.907 15.9312 551.682 16.4422 552.357 17.0941C553.032 17.7461 553.558 18.493 553.936 19.3377C554.315 20.1823 554.504 21.0758 554.504 22.0181C554.504 22.9605 554.315 23.8917 553.936 24.7363C553.558 25.581 553.03 26.3223 552.357 26.9603C551.682 27.5997 550.909 28.0995 550.034 28.4583C549.16 28.8185 548.229 28.9986 547.241 28.9986C546.252 28.9986 545.301 28.8185 544.427 28.4583C543.553 28.0981 542.785 27.5983 542.125 26.9603C541.463 26.3209 540.945 25.5796 540.574 24.7363C540.201 23.8931 540.015 22.987 540.015 22.0181ZM542.905 22.0181C542.905 22.6268 543.018 23.1937 543.242 23.7214C543.466 24.2491 543.781 24.714 544.186 25.1175C544.59 25.5209 545.058 25.8337 545.592 26.057C546.125 26.2804 546.706 26.3921 547.336 26.3921C547.966 26.3921 548.502 26.2804 549.023 26.057C549.543 25.8337 549.995 25.5209 550.381 25.1175C550.767 24.714 551.068 24.2491 551.287 23.7214C551.505 23.1937 551.615 22.6268 551.615 22.0181C551.615 21.4095 551.503 20.8203 551.279 20.287C551.053 19.7537 550.745 19.2846 550.354 18.8811C549.962 18.4777 549.502 18.1649 548.976 17.9416C548.449 17.7182 547.878 17.6065 547.261 17.6065C546.644 17.6065 546.073 17.7182 545.545 17.9416C545.018 18.1649 544.555 18.4791 544.158 18.8811C543.759 19.2846 543.451 19.7537 543.233 20.287C543.015 20.8203 542.905 21.3983 542.905 22.0181Z" fill="white"/>
<path d="M571.522 19.6899C571.238 18.8467 570.792 18.083 570.182 17.4003C569.572 16.7176 568.766 16.1718 567.764 15.7627C566.761 15.3523 565.547 15.1484 564.122 15.1484H559.882V17.7354H564.95C565.271 17.7354 565.663 17.794 566.125 17.9127C566.588 18.03 567.041 18.245 567.484 18.5549C567.927 18.8648 568.3 19.3018 568.602 19.8672C568.904 20.4312 569.055 21.1614 569.055 22.0549C569.055 22.7376 568.942 23.3421 568.718 23.8698C568.492 24.3975 568.172 24.8345 567.754 25.1821C567.336 25.5298 566.839 25.7936 566.261 25.9723C565.683 26.1524 565.04 26.2432 564.333 26.2432H562.677V20.3977H559.882V28.8497H564.816C565.778 28.8497 566.69 28.6975 567.552 28.3932C568.413 28.0888 569.17 27.6476 569.826 27.0711C570.481 26.4945 570.998 25.7992 571.377 24.9867C571.756 24.1742 571.945 23.2583 571.945 22.2406C571.945 21.3848 571.803 20.5346 571.522 19.6899Z" fill="white"/>
<path d="M577.321 15.1484V17.7577H580.116V17.7535H586.995V15.1484H577.321ZM580.692 26.2432L577.321 26.2446V28.8497H587.266V26.2432H580.692ZM580.992 23.2835H586.995V20.677H577.321V23.2765H580.992V23.2835Z" fill="white"/>
<path d="M593.509 15.1484H596.304V26.2432H602.972V28.8497H593.51V15.1484H593.509Z" fill="#38F1B9"/>
<path d="M607.19 22.0181C607.19 21.0758 607.377 20.1823 607.75 19.3377C608.123 18.4944 608.639 17.7461 609.3 17.0941C609.962 16.4422 610.73 15.9312 611.603 15.5584C612.476 15.1857 613.413 15 614.416 15C615.419 15 616.337 15.1857 617.21 15.5584C618.083 15.9312 618.858 16.4422 619.532 17.0941C620.207 17.7461 620.733 18.493 621.112 19.3377C621.491 20.1823 621.68 21.0758 621.68 22.0181C621.68 22.9605 621.491 23.8917 621.112 24.7363C620.733 25.581 620.206 26.3223 619.532 26.9603C618.858 27.5997 618.084 28.0995 617.21 28.4583C616.336 28.8185 615.405 28.9986 614.416 28.9986C613.428 28.9986 612.477 28.8185 611.603 28.4583C610.728 28.0981 609.961 27.5983 609.3 26.9603C608.639 26.3209 608.121 25.5796 607.75 24.7363C607.377 23.8931 607.19 22.987 607.19 22.0181ZM610.081 22.0181C610.081 22.6268 610.194 23.1937 610.418 23.7214C610.642 24.2491 610.957 24.714 611.361 25.1175C611.766 25.5209 612.234 25.8337 612.767 26.057C613.301 26.2804 613.882 26.3921 614.512 26.3921C615.142 26.3921 615.678 26.2804 616.198 26.057C616.719 25.8337 617.171 25.5209 617.557 25.1175C617.943 24.714 618.243 24.2491 618.463 23.7214C618.681 23.1937 618.791 22.6268 618.791 22.0181C618.791 21.4095 618.678 20.8203 618.454 20.287C618.229 19.7537 617.921 19.2846 617.529 18.8811C617.138 18.4777 616.678 18.1649 616.152 17.9416C615.625 17.7182 615.054 17.6065 614.437 17.6065C613.82 17.6065 613.249 17.7182 612.721 17.9416C612.194 18.1649 611.731 18.4791 611.334 18.8811C610.935 19.2846 610.627 19.7537 610.409 20.287C610.191 20.8203 610.081 21.3983 610.081 22.0181Z" fill="#38F1B9"/>
<path d="M638.563 27.4732C638.396 27.6477 638.133 27.8237 637.773 28.0037C637.413 28.1838 636.998 28.3486 636.53 28.4966C636.06 28.6459 635.582 28.766 635.095 28.8595C634.606 28.9531 634.144 28.9992 633.707 28.9992C632.551 28.9992 631.511 28.8344 630.586 28.5063C629.661 28.1783 628.87 27.7189 628.216 27.1284C627.561 26.5392 627.06 25.8412 626.713 25.0343C626.366 24.2273 626.192 23.3464 626.192 22.3915C626.192 21.1378 626.387 20.0488 626.781 19.1246C627.172 18.2004 627.706 17.4312 628.38 16.8169C629.055 16.2026 629.831 15.7461 630.712 15.4487C631.592 15.1513 632.514 15.002 633.476 15.002C634.388 15.002 635.223 15.0983 635.981 15.2909C636.738 15.4836 637.381 15.7223 637.907 16.0071L637.001 18.5201C636.77 18.3958 636.462 18.2716 636.076 18.1473C635.69 18.0231 635.299 17.9212 634.901 17.8402C634.502 17.7592 634.15 17.7187 633.842 17.7187C633.072 17.7187 632.389 17.8123 631.8 17.998C631.209 18.1836 630.712 18.4629 630.307 18.8356C629.902 19.2084 629.597 19.6705 629.392 20.2219C629.187 20.7748 629.084 21.417 629.084 22.1485C629.084 22.7935 629.2 23.3743 629.431 23.8895C629.662 24.4046 629.986 24.8416 630.404 25.2018C630.821 25.562 631.316 25.8342 631.888 26.0213C632.46 26.207 633.092 26.3005 633.786 26.3005C634.183 26.3005 634.55 26.2726 634.884 26.2167C635.218 26.1609 635.501 26.0716 635.732 25.9473V24.2901H633.285V21.6836H638.566V27.4732H638.563Z" fill="#38F1B9"/>
<path d="M644.325 15.1484H647.119V28.8497H644.325V15.1484Z" fill="#38F1B9"/>
<path d="M664 27.7134C663.845 27.8376 663.559 28.0051 663.143 28.216C662.725 28.4268 662.215 28.6138 661.611 28.7744C661.007 28.9349 660.339 29.0103 659.607 28.9978C658.489 28.9726 657.489 28.7772 656.611 28.4114C655.73 28.0456 654.985 27.5458 654.375 26.9134C653.765 26.281 653.298 25.555 652.977 24.7355C652.657 23.916 652.496 23.042 652.496 22.1108C652.496 21.068 652.659 20.113 652.987 19.2447C653.316 18.3763 653.784 17.6252 654.394 16.9928C655.004 16.3603 655.733 15.8703 656.58 15.5227C657.429 15.1751 658.365 15.002 659.394 15.002C660.345 15.002 661.186 15.1262 661.919 15.3747C662.652 15.6232 663.248 15.8899 663.711 16.1747L662.613 18.7253C662.292 18.4894 661.864 18.2451 661.331 17.9896C660.797 17.7355 660.185 17.6085 659.491 17.6085C658.952 17.6085 658.434 17.7174 657.94 17.9337C657.446 18.1515 657.008 18.4587 656.629 18.8552C656.251 19.2531 655.952 19.7152 655.733 20.2415C655.515 20.7692 655.405 21.343 655.405 21.9629C655.405 22.6204 655.505 23.2221 655.704 23.768C655.904 24.3139 656.189 24.783 656.561 25.1739C656.934 25.5648 657.381 25.8663 657.901 26.0771C658.421 26.288 659.01 26.3941 659.664 26.3941C660.422 26.3941 661.071 26.2768 661.611 26.0408C662.15 25.8049 662.562 25.5564 662.844 25.2967L664 27.7162V27.7134Z" fill="#38F1B9"/>
</g>
<path d="M16.4359 163.078C16.0078 163.078 15.5979 163.018 15.2062 162.898C14.8146 162.773 14.5039 162.614 14.2741 162.42L14.6266 161.629C14.8459 161.802 15.1175 161.945 15.4412 162.06C15.765 162.175 16.0965 162.232 16.4359 162.232C16.7231 162.232 16.9555 162.201 17.1331 162.138C17.3106 162.076 17.4411 161.992 17.5247 161.888C17.6082 161.778 17.65 161.655 17.65 161.52C17.65 161.353 17.59 161.219 17.4699 161.12C17.3498 161.016 17.1931 160.935 16.9999 160.877C16.8119 160.815 16.6004 160.757 16.3655 160.705C16.1357 160.653 15.9033 160.593 15.6684 160.525C15.4386 160.452 15.2271 160.36 15.0339 160.251C14.8459 160.136 14.6919 159.984 14.5718 159.796C14.4517 159.608 14.3916 159.368 14.3916 159.076C14.3916 158.778 14.47 158.507 14.6266 158.261C14.7885 158.011 15.0313 157.812 15.355 157.666C15.684 157.515 16.0991 157.439 16.6004 157.439C16.9294 157.439 17.2558 157.481 17.5795 157.564C17.9033 157.648 18.1852 157.768 18.4254 157.924L18.1043 158.716C17.8589 158.569 17.6056 158.462 17.3445 158.394C17.0834 158.321 16.8328 158.285 16.5926 158.285C16.3106 158.285 16.0809 158.319 15.9033 158.387C15.731 158.454 15.6031 158.543 15.5195 158.653C15.4412 158.763 15.402 158.888 15.402 159.029C15.402 159.196 15.4595 159.332 15.5744 159.436C15.6945 159.535 15.8485 159.614 16.0365 159.671C16.2297 159.729 16.4438 159.786 16.6788 159.843C16.9137 159.896 17.1461 159.956 17.3759 160.024C17.6108 160.091 17.8223 160.18 18.0103 160.29C18.2035 160.4 18.3576 160.548 18.4724 160.736C18.5925 160.924 18.6526 161.162 18.6526 161.449C18.6526 161.742 18.5716 162.013 18.4098 162.264C18.2531 162.509 18.0103 162.708 17.6813 162.859C17.3524 163.005 16.9372 163.078 16.4359 163.078ZM21.6126 163.055C21.1478 163.055 20.7406 162.963 20.3907 162.781C20.0461 162.593 19.7771 162.337 19.5839 162.013C19.3959 161.689 19.302 161.321 19.302 160.909C19.302 160.491 19.3933 160.123 19.5761 159.804C19.7641 159.481 20.0199 159.227 20.3437 159.045C20.6727 158.862 21.046 158.77 21.4638 158.77C21.8711 158.77 22.234 158.859 22.5525 159.037C22.871 159.214 23.1217 159.465 23.3044 159.789C23.4872 160.112 23.5786 160.494 23.5786 160.932C23.5786 160.974 23.576 161.021 23.5707 161.073C23.5707 161.125 23.5681 161.175 23.5629 161.222H20.0774V160.572H23.046L22.6622 160.776C22.6674 160.535 22.6178 160.324 22.5133 160.141C22.4089 159.958 22.2653 159.815 22.0825 159.71C21.905 159.606 21.6987 159.554 21.4638 159.554C21.2236 159.554 21.0121 159.606 20.8293 159.71C20.6518 159.815 20.5108 159.961 20.4064 160.149C20.3071 160.332 20.2575 160.548 20.2575 160.799V160.956C20.2575 161.206 20.315 161.428 20.4299 161.621C20.5447 161.815 20.7066 161.963 20.9155 162.068C21.1243 162.172 21.3646 162.225 21.6361 162.225C21.8711 162.225 22.0825 162.188 22.2705 162.115C22.4585 162.042 22.6256 161.927 22.7718 161.77L23.2966 162.373C23.1086 162.593 22.871 162.762 22.5838 162.883C22.3019 162.997 21.9781 163.055 21.6126 163.055ZM24.5974 163V158.817H25.5295V159.969L25.4198 159.632C25.5451 159.35 25.7409 159.136 26.0072 158.99C26.2788 158.843 26.6156 158.77 27.0177 158.77V159.702C26.9759 159.692 26.9367 159.687 26.9002 159.687C26.8636 159.682 26.8271 159.679 26.7905 159.679C26.4198 159.679 26.1247 159.789 25.9054 160.008C25.6861 160.222 25.5764 160.543 25.5764 160.971V163H24.5974ZM29.1918 163L27.3981 158.817H28.4163L29.9594 162.507H29.4581L31.0559 158.817H31.9958L30.2022 163H29.1918ZM32.6861 163V158.817H33.6652V163H32.6861ZM33.1795 158.128C32.9968 158.128 32.8454 158.071 32.7253 157.956C32.6104 157.841 32.5529 157.703 32.5529 157.541C32.5529 157.374 32.6104 157.235 32.7253 157.126C32.8454 157.011 32.9968 156.953 33.1795 156.953C33.3623 156.953 33.5111 157.008 33.626 157.118C33.7461 157.222 33.8062 157.355 33.8062 157.517C33.8062 157.689 33.7487 157.836 33.6338 157.956C33.519 158.071 33.3675 158.128 33.1795 158.128ZM36.9475 163.055C36.5089 163.055 36.1173 162.963 35.7726 162.781C35.4332 162.593 35.1669 162.337 34.9737 162.013C34.7805 161.689 34.6839 161.321 34.6839 160.909C34.6839 160.491 34.7805 160.123 34.9737 159.804C35.1669 159.481 35.4332 159.227 35.7726 159.045C36.1173 158.862 36.5089 158.77 36.9475 158.77C37.3548 158.77 37.7125 158.854 38.0206 159.021C38.3339 159.183 38.5715 159.423 38.7334 159.742L37.9814 160.18C37.8561 159.982 37.7021 159.836 37.5193 159.742C37.3418 159.648 37.1486 159.601 36.9397 159.601C36.6995 159.601 36.4828 159.653 36.2896 159.757C36.0964 159.862 35.945 160.013 35.8353 160.212C35.7256 160.405 35.6708 160.637 35.6708 160.909C35.6708 161.18 35.7256 161.415 35.8353 161.614C35.945 161.807 36.0964 161.956 36.2896 162.06C36.4828 162.165 36.6995 162.217 36.9397 162.217C37.1486 162.217 37.3418 162.17 37.5193 162.076C37.7021 161.982 37.8561 161.836 37.9814 161.637L38.7334 162.076C38.5715 162.389 38.3339 162.632 38.0206 162.804C37.7125 162.971 37.3548 163.055 36.9475 163.055ZM41.5628 163.055C41.0981 163.055 40.6908 162.963 40.341 162.781C39.9963 162.593 39.7274 162.337 39.5342 162.013C39.3462 161.689 39.2522 161.321 39.2522 160.909C39.2522 160.491 39.3436 160.123 39.5264 159.804C39.7143 159.481 39.9702 159.227 40.294 159.045C40.6229 158.862 40.9963 158.77 41.414 158.77C41.8213 158.77 42.1842 158.859 42.5028 159.037C42.8213 159.214 43.0719 159.465 43.2547 159.789C43.4375 160.112 43.5288 160.494 43.5288 160.932C43.5288 160.974 43.5262 161.021 43.521 161.073C43.521 161.125 43.5184 161.175 43.5132 161.222H40.0277V160.572H42.9962L42.6124 160.776C42.6176 160.535 42.568 160.324 42.4636 160.141C42.3592 159.958 42.2156 159.815 42.0328 159.71C41.8553 159.606 41.649 159.554 41.414 159.554C41.1738 159.554 40.9623 159.606 40.7796 159.71C40.602 159.815 40.4611 159.961 40.3566 160.149C40.2574 160.332 40.2078 160.548 40.2078 160.799V160.956C40.2078 161.206 40.2652 161.428 40.3801 161.621C40.495 161.815 40.6569 161.963 40.8657 162.068C41.0746 162.172 41.3148 162.225 41.5863 162.225C41.8213 162.225 42.0328 162.188 42.2208 162.115C42.4088 162.042 42.5759 161.927 42.7221 161.77L43.2469 162.373C43.0589 162.593 42.8213 162.762 42.5341 162.883C42.2521 162.997 41.9284 163.055 41.5628 163.055ZM45.84 163.055C45.4902 163.055 45.1534 163.01 44.8296 162.922C44.5111 162.828 44.2578 162.715 44.0698 162.585L44.4458 161.841C44.6338 161.961 44.8583 162.06 45.1194 162.138C45.3805 162.217 45.6416 162.256 45.9027 162.256C46.2108 162.256 46.4327 162.214 46.5685 162.131C46.7094 162.047 46.7799 161.935 46.7799 161.794C46.7799 161.679 46.7329 161.593 46.6389 161.535C46.545 161.473 46.4222 161.426 46.2708 161.394C46.1194 161.363 45.9497 161.334 45.7617 161.308C45.5789 161.282 45.3936 161.248 45.2056 161.206C45.0228 161.159 44.8557 161.094 44.7043 161.011C44.5529 160.922 44.4301 160.804 44.3362 160.658C44.2422 160.512 44.1952 160.319 44.1952 160.078C44.1952 159.812 44.2709 159.582 44.4223 159.389C44.5737 159.191 44.7852 159.039 45.0568 158.935C45.3335 158.825 45.6599 158.77 46.0358 158.77C46.3178 158.77 46.6024 158.802 46.8896 158.864C47.1768 158.927 47.4144 159.016 47.6024 159.131L47.2264 159.875C47.028 159.755 46.8269 159.674 46.6233 159.632C46.4249 159.585 46.2264 159.561 46.028 159.561C45.7304 159.561 45.5084 159.606 45.3622 159.695C45.2212 159.783 45.1507 159.896 45.1507 160.031C45.1507 160.157 45.1977 160.251 45.2917 160.313C45.3857 160.376 45.5084 160.426 45.6599 160.462C45.8113 160.499 45.9784 160.53 46.1612 160.556C46.3491 160.577 46.5345 160.611 46.7173 160.658C46.9 160.705 47.0671 160.77 47.2186 160.854C47.3752 160.932 47.5005 161.044 47.5945 161.191C47.6885 161.337 47.7355 161.527 47.7355 161.762C47.7355 162.024 47.6572 162.251 47.5005 162.444C47.3491 162.637 47.1324 162.789 46.8504 162.898C46.5685 163.003 46.2316 163.055 45.84 163.055Z" fill="white"/>
<path d="M15.8485 264V259.379H14.0313V258.517H18.6839V259.379H16.8667V264H15.8485ZM20.9701 264.055C20.5053 264.055 20.098 263.963 19.7482 263.781C19.4035 263.593 19.1346 263.337 18.9414 263.013C18.7534 262.689 18.6594 262.321 18.6594 261.909C18.6594 261.491 18.7508 261.123 18.9336 260.804C19.1216 260.481 19.3774 260.227 19.7012 260.045C20.0301 259.862 20.4035 259.77 20.8212 259.77C21.2285 259.77 21.5915 259.859 21.91 260.037C22.2285 260.214 22.4792 260.465 22.6619 260.789C22.8447 261.112 22.9361 261.494 22.9361 261.932C22.9361 261.974 22.9334 262.021 22.9282 262.073C22.9282 262.125 22.9256 262.175 22.9204 262.222H19.4349V261.572H22.4034L22.0196 261.776C22.0249 261.535 21.9753 261.324 21.8708 261.141C21.7664 260.958 21.6228 260.815 21.44 260.71C21.2625 260.606 21.0562 260.554 20.8212 260.554C20.581 260.554 20.3696 260.606 20.1868 260.71C20.0093 260.815 19.8683 260.961 19.7638 261.149C19.6646 261.332 19.615 261.548 19.615 261.799V261.956C19.615 262.206 19.6725 262.428 19.7873 262.621C19.9022 262.815 20.0641 262.963 20.273 263.068C20.4818 263.172 20.722 263.225 20.9936 263.225C21.2285 263.225 21.44 263.188 21.628 263.115C21.816 263.042 21.9831 262.927 22.1293 262.77L22.6541 263.373C22.4661 263.593 22.2285 263.762 21.9413 263.883C21.6593 263.997 21.3356 264.055 20.9701 264.055ZM25.8738 264.055C25.4352 264.055 25.0436 263.963 24.6989 263.781C24.3595 263.593 24.0932 263.337 23.9 263.013C23.7068 262.689 23.6102 262.321 23.6102 261.909C23.6102 261.491 23.7068 261.123 23.9 260.804C24.0932 260.481 24.3595 260.227 24.6989 260.045C25.0436 259.862 25.4352 259.77 25.8738 259.77C26.2811 259.77 26.6388 259.854 26.9469 260.021C27.2602 260.183 27.4978 260.423 27.6597 260.742L26.9077 261.18C26.7824 260.982 26.6284 260.836 26.4456 260.742C26.2681 260.648 26.0749 260.601 25.866 260.601C25.6258 260.601 25.4091 260.653 25.2159 260.757C25.0227 260.862 24.8713 261.013 24.7616 261.212C24.652 261.405 24.5971 261.637 24.5971 261.909C24.5971 262.18 24.652 262.415 24.7616 262.614C24.8713 262.807 25.0227 262.956 25.2159 263.06C25.4091 263.165 25.6258 263.217 25.866 263.217C26.0749 263.217 26.2681 263.17 26.4456 263.076C26.6284 262.982 26.7824 262.836 26.9077 262.637L27.6597 263.076C27.4978 263.389 27.2602 263.632 26.9469 263.804C26.6388 263.971 26.2811 264.055 25.8738 264.055ZM30.9194 259.77C31.2536 259.77 31.5512 259.836 31.8123 259.966C32.0786 260.097 32.2875 260.298 32.4389 260.569C32.5904 260.836 32.6661 261.18 32.6661 261.603V264H31.687V261.729C31.687 261.358 31.5982 261.081 31.4207 260.898C31.2484 260.716 31.0056 260.624 30.6923 260.624C30.4625 260.624 30.2589 260.671 30.0813 260.765C29.9038 260.859 29.7654 261 29.6662 261.188C29.5722 261.371 29.5252 261.603 29.5252 261.885V264H28.5461V258.188H29.5252V260.945L29.3137 260.601C29.4599 260.334 29.6714 260.131 29.9482 259.99C30.2301 259.843 30.5539 259.77 30.9194 259.77ZM36.3597 259.77C36.6939 259.77 36.9915 259.836 37.2526 259.966C37.5189 260.097 37.7278 260.298 37.8792 260.569C38.0307 260.836 38.1064 261.18 38.1064 261.603V264H37.1273V261.729C37.1273 261.358 37.0385 261.081 36.861 260.898C36.6887 260.716 36.4459 260.624 36.1326 260.624C35.9028 260.624 35.6992 260.671 35.5216 260.765C35.3441 260.859 35.2057 261 35.1065 261.188C35.0125 261.371 34.9655 261.603 34.9655 261.885V264H33.9864V259.817H34.9185V260.945L34.754 260.601C34.9002 260.334 35.1117 260.131 35.3885 259.99C35.6704 259.843 35.9942 259.77 36.3597 259.77ZM41.3142 264.055C40.886 264.055 40.5048 263.963 40.1707 263.781C39.8365 263.593 39.5728 263.337 39.3796 263.013C39.1864 262.689 39.0898 262.321 39.0898 261.909C39.0898 261.491 39.1864 261.123 39.3796 260.804C39.5728 260.481 39.8365 260.227 40.1707 260.045C40.5048 259.862 40.886 259.77 41.3142 259.77C41.7476 259.77 42.1314 259.862 42.4656 260.045C42.805 260.227 43.0687 260.478 43.2567 260.796C43.4499 261.115 43.5465 261.486 43.5465 261.909C43.5465 262.321 43.4499 262.689 43.2567 263.013C43.0687 263.337 42.805 263.593 42.4656 263.781C42.1314 263.963 41.7476 264.055 41.3142 264.055ZM41.3142 263.217C41.5544 263.217 41.7685 263.165 41.9565 263.06C42.1445 262.956 42.2907 262.804 42.3951 262.606C42.5048 262.407 42.5596 262.175 42.5596 261.909C42.5596 261.637 42.5048 261.405 42.3951 261.212C42.2907 261.013 42.1445 260.862 41.9565 260.757C41.7685 260.653 41.557 260.601 41.3221 260.601C41.0819 260.601 40.8678 260.653 40.6798 260.757C40.497 260.862 40.3508 261.013 40.2412 261.212C40.1315 261.405 40.0767 261.637 40.0767 261.909C40.0767 262.175 40.1315 262.407 40.2412 262.606C40.3508 262.804 40.497 262.956 40.6798 263.06C40.8678 263.165 41.0792 263.217 41.3142 263.217ZM44.5611 264V258.188H45.5402V264H44.5611ZM48.7834 264.055C48.3552 264.055 47.974 263.963 47.6398 263.781C47.3056 263.593 47.0419 263.337 46.8487 263.013C46.6555 262.689 46.5589 262.321 46.5589 261.909C46.5589 261.491 46.6555 261.123 46.8487 260.804C47.0419 260.481 47.3056 260.227 47.6398 260.045C47.974 259.862 48.3552 259.77 48.7834 259.77C49.2168 259.77 49.6006 259.862 49.9348 260.045C50.2742 260.227 50.5379 260.478 50.7259 260.796C50.9191 261.115 51.0157 261.486 51.0157 261.909C51.0157 262.321 50.9191 262.689 50.7259 263.013C50.5379 263.337 50.2742 263.593 49.9348 263.781C49.6006 263.963 49.2168 264.055 48.7834 264.055ZM48.7834 263.217C49.0236 263.217 49.2377 263.165 49.4256 263.06C49.6136 262.956 49.7598 262.804 49.8643 262.606C49.9739 262.407 50.0288 262.175 50.0288 261.909C50.0288 261.637 49.9739 261.405 49.8643 261.212C49.7598 261.013 49.6136 260.862 49.4256 260.757C49.2377 260.653 49.0262 260.601 48.7912 260.601C48.551 260.601 48.3369 260.653 48.1489 260.757C47.9662 260.862 47.82 261.013 47.7103 261.212C47.6006 261.405 47.5458 261.637 47.5458 261.909C47.5458 262.175 47.6006 262.407 47.7103 262.606C47.82 262.804 47.9662 262.956 48.1489 263.06C48.3369 263.165 48.5484 263.217 48.7834 263.217ZM53.9257 265.574C53.5393 265.574 53.1608 265.522 52.79 265.418C52.4245 265.318 52.1242 265.172 51.8893 264.979L52.3279 264.243C52.5106 264.394 52.7404 264.514 53.0172 264.603C53.2991 264.697 53.5837 264.744 53.8709 264.744C54.3304 264.744 54.6672 264.637 54.8813 264.423C55.0954 264.214 55.2025 263.898 55.2025 263.475V262.731L55.2808 261.783L55.2495 260.836V259.817H56.1815V263.366C56.1815 264.123 55.9883 264.679 55.6019 265.034C55.2155 265.394 54.6568 265.574 53.9257 265.574ZM53.8004 263.812C53.4036 263.812 53.0433 263.728 52.7195 263.561C52.401 263.389 52.1477 263.151 51.9597 262.849C51.777 262.546 51.6856 262.191 51.6856 261.783C51.6856 261.381 51.777 261.029 51.9597 260.726C52.1477 260.423 52.401 260.188 52.7195 260.021C53.0433 259.854 53.4036 259.77 53.8004 259.77C54.1555 259.77 54.474 259.841 54.756 259.982C55.038 260.123 55.2625 260.342 55.4296 260.64C55.6019 260.937 55.6881 261.319 55.6881 261.783C55.6881 262.248 55.6019 262.632 55.4296 262.935C55.2625 263.232 55.038 263.454 54.756 263.601C54.474 263.742 54.1555 263.812 53.8004 263.812ZM53.9492 262.982C54.1947 262.982 54.414 262.932 54.6072 262.833C54.8004 262.729 54.9492 262.588 55.0536 262.41C55.1633 262.227 55.2181 262.018 55.2181 261.783C55.2181 261.548 55.1633 261.342 55.0536 261.165C54.9492 260.982 54.8004 260.843 54.6072 260.749C54.414 260.65 54.1947 260.601 53.9492 260.601C53.7038 260.601 53.4819 260.65 53.2835 260.749C53.0903 260.843 52.9388 260.982 52.8292 261.165C52.7247 261.342 52.6725 261.548 52.6725 261.783C52.6725 262.018 52.7247 262.227 52.8292 262.41C52.9388 262.588 53.0903 262.729 53.2835 262.833C53.4819 262.932 53.7038 262.982 53.9492 262.982ZM57.547 264V259.817H58.5261V264H57.547ZM58.0405 259.128C57.8577 259.128 57.7063 259.071 57.5862 258.956C57.4713 258.841 57.4139 258.703 57.4139 258.541C57.4139 258.374 57.4713 258.235 57.5862 258.126C57.7063 258.011 57.8577 257.953 58.0405 257.953C58.2233 257.953 58.3721 258.008 58.487 258.118C58.6071 258.222 58.6671 258.355 58.6671 258.517C58.6671 258.689 58.6097 258.836 58.4948 258.956C58.3799 259.071 58.2285 259.128 58.0405 259.128ZM61.8555 264.055C61.3907 264.055 60.9834 263.963 60.6336 263.781C60.289 263.593 60.02 263.337 59.8268 263.013C59.6388 262.689 59.5449 262.321 59.5449 261.909C59.5449 261.491 59.6362 261.123 59.819 260.804C60.007 260.481 60.2628 260.227 60.5866 260.045C60.9156 259.862 61.2889 259.77 61.7067 259.77C62.114 259.77 62.4769 259.859 62.7954 260.037C63.1139 260.214 63.3646 260.465 63.5473 260.789C63.7301 261.112 63.8215 261.494 63.8215 261.932C63.8215 261.974 63.8189 262.021 63.8136 262.073C63.8136 262.125 63.811 262.175 63.8058 262.222H60.3203V261.572H63.2889L62.9051 261.776C62.9103 261.535 62.8607 261.324 62.7562 261.141C62.6518 260.958 62.5082 260.815 62.3254 260.71C62.1479 260.606 61.9416 260.554 61.7067 260.554C61.4665 260.554 61.255 260.606 61.0722 260.71C60.8947 260.815 60.7537 260.961 60.6493 261.149C60.55 261.332 60.5004 261.548 60.5004 261.799V261.956C60.5004 262.206 60.5579 262.428 60.6728 262.621C60.7876 262.815 60.9495 262.963 61.1584 263.068C61.3672 263.172 61.6074 263.225 61.879 263.225C62.114 263.225 62.3254 263.188 62.5134 263.115C62.7014 263.042 62.8685 262.927 63.0147 262.77L63.5395 263.373C63.3515 263.593 63.1139 263.762 62.8267 263.883C62.5448 263.997 62.221 264.055 61.8555 264.055ZM66.1327 264.055C65.7828 264.055 65.446 264.01 65.1222 263.922C64.8037 263.828 64.5505 263.715 64.3625 263.585L64.7384 262.841C64.9264 262.961 65.151 263.06 65.412 263.138C65.6731 263.217 65.9342 263.256 66.1953 263.256C66.5034 263.256 66.7253 263.214 66.8611 263.131C67.0021 263.047 67.0726 262.935 67.0726 262.794C67.0726 262.679 67.0256 262.593 66.9316 262.535C66.8376 262.473 66.7149 262.426 66.5634 262.394C66.412 262.363 66.2423 262.334 66.0543 262.308C65.8716 262.282 65.6862 262.248 65.4982 262.206C65.3154 262.159 65.1483 262.094 64.9969 262.011C64.8455 261.922 64.7228 261.804 64.6288 261.658C64.5348 261.512 64.4878 261.319 64.4878 261.078C64.4878 260.812 64.5635 260.582 64.7149 260.389C64.8664 260.191 65.0779 260.039 65.3494 259.935C65.6261 259.825 65.9525 259.77 66.3285 259.77C66.6104 259.77 66.895 259.802 67.1822 259.864C67.4694 259.927 67.707 260.016 67.895 260.131L67.519 260.875C67.3206 260.755 67.1196 260.674 66.9159 260.632C66.7175 260.585 66.5191 260.561 66.3206 260.561C66.023 260.561 65.8011 260.606 65.6549 260.695C65.5139 260.783 65.4434 260.896 65.4434 261.031C65.4434 261.157 65.4904 261.251 65.5844 261.313C65.6784 261.376 65.8011 261.426 65.9525 261.462C66.1039 261.499 66.271 261.53 66.4538 261.556C66.6418 261.577 66.8271 261.611 67.0099 261.658C67.1927 261.705 67.3598 261.77 67.5112 261.854C67.6678 261.932 67.7932 262.044 67.8872 262.191C67.9812 262.337 68.0281 262.527 68.0281 262.762C68.0281 263.024 67.9498 263.251 67.7932 263.444C67.6417 263.637 67.425 263.789 67.1431 263.898C66.8611 264.003 66.5243 264.055 66.1327 264.055Z" fill="white"/>
</g>
<defs>
<linearGradient id="paint0_linear_2_7458" x1="158.148" y1="122.068" x2="525.721" y2="355.313" gradientUnits="userSpaceOnUse">
<stop stop-color="#E1467C"/>
<stop offset="1" stop-color="#FF9CE3"/>
</linearGradient>
<linearGradient id="paint1_linear_2_7458" x1="693.755" y1="149.815" x2="275.156" y2="-82.2179" gradientUnits="userSpaceOnUse">
<stop stop-color="#E0695B"/>
<stop offset="1" stop-color="#3913B8"/>
</linearGradient>
<linearGradient id="paint2_linear_2_7458" x1="694.116" y1="133.878" x2="284.233" y2="-93.3241" gradientUnits="userSpaceOnUse">
<stop stop-color="#FF5A3D"/>
<stop offset="1" stop-color="#2FB8FF"/>
</linearGradient>
<linearGradient id="paint3_linear_2_7458" x1="681.82" y1="127.105" x2="311.944" y2="-77.9208" gradientUnits="userSpaceOnUse">
<stop stop-color="#FF5A3D"/>
<stop offset="1" stop-color="#2FB8FF"/>
</linearGradient>
<linearGradient id="paint4_linear_2_7458" x1="704.013" y1="114.851" x2="280.513" y2="-119.899" gradientUnits="userSpaceOnUse">
<stop stop-color="#FF6C6C"/>
<stop offset="1" stop-color="#2FB8FF"/>
</linearGradient>
<clipPath id="clip0_2_7458">
<rect width="702" height="428" fill="white"/>
</clipPath>
<clipPath id="clip1_2_7458">
<rect width="140" height="14" fill="white" transform="translate(524 15)"/>
</clipPath>
</defs>
</svg>
