<svg width="786" height="685" viewBox="0 0 786 685" fill="none" xmlns="http://www.w3.org/2000/svg">
<g clip-path="url(#clip0_14_2)">
<path d="M649.51 389.39H649.06C645.092 389.272 641.332 387.586 638.605 384.702C635.878 381.817 634.405 377.969 634.51 374C636.73 297.78 619.6 240.34 583.6 203.28C548 166.57 492.11 148 417.5 148C413.522 148 409.706 146.42 406.893 143.607C404.08 140.794 402.5 136.978 402.5 133C402.5 129.022 404.08 125.206 406.893 122.393C409.706 119.58 413.522 118 417.5 118C500.5 118 563.65 139.65 605.12 182.35C647 225.43 667 290.19 664.49 374.82C664.378 378.72 662.751 382.423 659.955 385.143C657.158 387.863 653.411 389.386 649.51 389.39Z" fill="url(#paint0_linear_14_2)"/>
<path d="M367.5 148H317.5C313.522 148 309.706 146.42 306.893 143.607C304.08 140.794 302.5 136.978 302.5 133C302.5 129.022 304.08 125.206 306.893 122.393C309.706 119.58 313.522 118 317.5 118H367.5C371.478 118 375.294 119.58 378.107 122.393C380.92 125.206 382.5 129.022 382.5 133C382.5 136.978 380.92 140.794 378.107 143.607C375.294 146.42 371.478 148 367.5 148Z" fill="url(#paint1_linear_14_2)"/>
<path d="M272.5 148H155.5C151.522 148 147.706 146.42 144.893 143.607C142.08 140.794 140.5 136.978 140.5 133C140.5 129.022 142.08 125.206 144.893 122.393C147.706 119.58 151.522 118 155.5 118H272.5C276.478 118 280.294 119.58 283.107 122.393C285.92 125.206 287.5 129.022 287.5 133C287.5 136.978 285.92 140.794 283.107 143.607C280.294 146.42 276.478 148 272.5 148Z" fill="url(#paint2_linear_14_2)"/>
<path d="M693.1 419.89C689.785 419.89 686.605 418.573 684.261 416.229C681.917 413.884 680.6 410.705 680.6 407.39C680.6 327.02 674.03 284.74 661.07 248.85C660.478 247.298 660.201 245.645 660.256 243.985C660.31 242.326 660.694 240.694 661.386 239.185C662.078 237.675 663.064 236.319 664.286 235.195C665.508 234.071 666.942 233.202 668.503 232.638C670.065 232.074 671.723 231.827 673.382 231.911C675.04 231.995 676.665 232.408 678.161 233.127C679.658 233.846 680.996 234.856 682.098 236.098C683.2 237.339 684.044 238.788 684.58 240.36C698.53 278.97 705.58 325.99 705.58 407.36C705.584 409.002 705.264 410.629 704.639 412.148C704.014 413.667 703.095 415.047 701.936 416.211C700.777 417.375 699.4 418.298 697.884 418.93C696.368 419.561 694.742 419.887 693.1 419.89Z" fill="url(#paint3_linear_14_2)"/>
<path d="M657.44 222.66C655.189 222.663 652.98 222.059 651.044 220.911C649.108 219.764 647.517 218.115 646.44 216.139C631.665 188.578 610.382 165.043 584.44 147.579C560.85 131.749 532.44 120.249 499.97 113.389C496.726 112.703 493.888 110.755 492.081 107.976C490.273 105.197 489.643 101.813 490.33 98.5695C491.017 95.3259 492.964 92.488 495.743 90.6802C498.523 88.8723 501.906 88.2426 505.15 88.9295C580.53 104.869 635.46 143.639 668.42 204.179C669.455 206.085 669.977 208.228 669.934 210.396C669.891 212.564 669.285 214.684 668.176 216.548C667.067 218.412 665.492 219.955 663.606 221.026C661.721 222.098 659.589 222.661 657.42 222.66H657.44Z" fill="url(#paint4_linear_14_2)"/>
<path d="M461.52 107.48C461.12 107.48 460.72 107.48 460.32 107.48C446.74 106.19 432.32 105.48 417.5 105.48H368.5C365.185 105.48 362.005 104.164 359.661 101.819C357.317 99.4751 356 96.2957 356 92.9805C356 89.6653 357.317 86.4858 359.661 84.1416C362.005 81.7974 365.185 80.4805 368.5 80.4805H417.5C433.12 80.4805 448.33 81.1805 462.68 82.5405C465.869 82.8536 468.815 84.3792 470.912 86.8023C473.008 89.2254 474.094 92.3609 473.945 95.5614C473.796 98.7619 472.424 101.783 470.112 104.001C467.8 106.219 464.724 107.465 461.52 107.48Z" fill="url(#paint5_linear_14_2)"/>
<path d="M325.5 105.48H193C189.685 105.48 186.505 104.164 184.161 101.819C181.817 99.4751 180.5 96.2957 180.5 92.9805C180.5 89.6653 181.817 86.4858 184.161 84.1416C186.505 81.7974 189.685 80.4805 193 80.4805H325.5C328.815 80.4805 331.995 81.7974 334.339 84.1416C336.683 86.4858 338 89.6653 338 92.9805C338 96.2957 336.683 99.4751 334.339 101.819C331.995 104.164 328.815 105.48 325.5 105.48Z" fill="url(#paint6_linear_14_2)"/>
<path d="M155.5 105.48H142.67C139.355 105.48 136.175 104.164 133.831 101.819C131.487 99.4751 130.17 96.2957 130.17 92.9805C130.17 89.6653 131.487 86.4858 133.831 84.1416C136.175 81.7974 139.355 80.4805 142.67 80.4805H155.5C158.815 80.4805 161.995 81.7974 164.339 84.1416C166.683 86.4858 168 89.6653 168 92.9805C168 96.2957 166.683 99.4751 164.339 101.819C161.995 104.164 158.815 105.48 155.5 105.48Z" fill="url(#paint7_linear_14_2)"/>
<path d="M105.5 105.48H62.5C59.1848 105.48 56.0054 104.164 53.6612 101.819C51.317 99.4751 50 96.2957 50 92.9805C50 89.6653 51.317 86.4858 53.6612 84.1416C56.0054 81.7974 59.1848 80.4805 62.5 80.4805H105.5C108.815 80.4805 111.995 81.7974 114.339 84.1416C116.683 86.4858 118 89.6653 118 92.9805C118 96.2957 116.683 99.4751 114.339 101.819C111.995 104.164 108.815 105.48 105.5 105.48Z" fill="url(#paint8_linear_14_2)"/>
<path d="M735.82 389.891C731.179 389.888 726.73 388.044 723.448 384.762C720.167 381.481 718.323 377.031 718.32 372.391C718.32 311.901 708.56 258.941 689.32 214.991C688.317 212.873 687.749 210.575 687.65 208.234C687.552 205.893 687.924 203.555 688.746 201.361C689.568 199.166 690.822 197.159 692.434 195.459C694.047 193.758 695.984 192.398 698.131 191.46C700.279 190.523 702.593 190.026 704.936 189.999C707.28 189.973 709.604 190.417 711.773 191.306C713.941 192.195 715.908 193.51 717.559 195.174C719.209 196.837 720.509 198.815 721.38 200.991C742.58 249.401 753.38 307.081 753.38 372.431C753.375 374.731 752.916 377.007 752.031 379.129C751.145 381.252 749.85 383.179 748.219 384.801C746.588 386.422 744.654 387.706 742.526 388.58C740.399 389.453 738.12 389.899 735.82 389.891Z" fill="url(#paint9_linear_14_2)"/>
<path d="M675.9 174.07C673.153 174.074 670.444 173.431 667.993 172.192C665.541 170.953 663.416 169.154 661.79 166.94C620.65 111.07 556.91 78.3896 472.33 69.8096C470.001 69.6335 467.731 68.9929 465.653 67.9255C463.575 66.8582 461.732 65.3857 460.232 63.5948C458.733 61.804 457.607 59.731 456.921 57.4982C456.235 55.2653 456.003 52.9177 456.239 50.5938C456.474 48.2699 457.173 46.0166 458.293 43.9669C459.413 41.9172 460.932 40.1125 462.761 38.6592C464.59 37.2058 466.691 36.1333 468.941 35.5048C471.19 34.8763 473.543 34.7045 475.86 34.9996C570.69 44.5996 642.73 81.9996 690 146.19C691.916 148.796 693.072 151.883 693.341 155.106C693.609 158.33 692.979 161.565 691.521 164.453C690.063 167.341 687.833 169.768 685.079 171.465C682.325 173.163 679.155 174.064 675.92 174.07H675.9Z" fill="url(#paint10_linear_14_2)"/>
<path d="M412.5 67.4805H228.5C223.859 67.4805 219.408 65.6367 216.126 62.3548C212.844 59.073 211 54.6218 211 49.9805C211 45.3392 212.844 40.888 216.126 37.6061C219.408 34.3242 223.859 32.4805 228.5 32.4805H412.5C417.141 32.4805 421.592 34.3242 424.874 37.6061C428.156 40.888 430 45.3392 430 49.9805C430 54.6218 428.156 59.073 424.874 62.3548C421.592 65.6367 417.141 67.4805 412.5 67.4805Z" fill="url(#paint11_linear_14_2)"/>
<path d="M174.5 67H99.5C94.8587 67 90.4075 65.1563 87.1256 61.8744C83.8437 58.5925 82 54.1413 82 49.5C82 44.8587 83.8437 40.4075 87.1256 37.1256C90.4075 33.8437 94.8587 32 99.5 32H174.5C179.141 32 183.592 33.8437 186.874 37.1256C190.156 40.4075 192 44.8587 192 49.5C192 54.1413 190.156 58.5925 186.874 61.8744C183.592 65.1563 179.141 67 174.5 67Z" fill="url(#paint12_linear_14_2)"/>
<path d="M49.5 67H17.5C12.8587 67 8.40752 65.1563 5.12563 61.8744C1.84374 58.5925 0 54.1413 0 49.5C0 44.8587 1.84374 40.4075 5.12563 37.1256C8.40752 33.8437 12.8587 32 17.5 32H49.5C54.1413 32 58.5925 33.8437 61.8744 37.1256C65.1563 40.4075 67 44.8587 67 49.5C67 54.1413 65.1563 58.5925 61.8744 61.8744C58.5925 65.1563 54.1413 67 49.5 67Z" fill="url(#paint13_linear_14_2)"/>
<path d="M775.42 388.391C772.768 388.391 770.224 387.337 768.349 385.462C766.474 383.587 765.42 381.043 765.42 378.391C765.42 342.261 762.6 308.291 757.03 277.391C756.604 274.8 757.214 272.146 758.728 270.001C760.242 267.856 762.538 266.393 765.122 265.926C767.706 265.46 770.369 266.029 772.537 267.51C774.705 268.991 776.204 271.265 776.71 273.841C782.49 305.841 785.42 341.031 785.42 378.351C785.425 379.667 785.171 380.972 784.67 382.19C784.17 383.408 783.434 384.515 782.505 385.448C781.576 386.381 780.472 387.121 779.256 387.626C778.04 388.131 776.737 388.391 775.42 388.391Z" fill="url(#paint14_linear_14_2)"/>
<path d="M760.12 254.61C757.899 254.611 755.741 253.872 753.987 252.51C752.232 251.149 750.981 249.242 750.43 247.09C747.362 235.021 743.691 223.112 739.43 211.41C738.932 210.168 738.689 208.838 738.715 207.501C738.74 206.163 739.034 204.843 739.579 203.621C740.124 202.399 740.908 201.298 741.886 200.384C742.864 199.471 744.015 198.763 745.271 198.302C746.528 197.842 747.864 197.638 749.201 197.703C750.537 197.769 751.847 198.101 753.053 198.682C754.258 199.263 755.335 200.08 756.219 201.084C757.104 202.089 757.777 203.261 758.2 204.53C762.59 216.53 766.5 229.15 769.83 242.12C770.156 243.393 770.228 244.717 770.042 246.017C769.856 247.318 769.416 248.569 768.746 249.699C768.077 250.829 767.191 251.816 766.14 252.604C765.089 253.392 763.893 253.965 762.62 254.29C761.804 254.506 760.964 254.613 760.12 254.61Z" fill="url(#paint15_linear_14_2)"/>
<path d="M735.83 187.34C733.951 187.34 732.111 186.811 730.519 185.813C728.927 184.816 727.649 183.39 726.83 181.7C723.49 174.82 719.89 168.06 716.12 161.62C714.826 159.333 714.483 156.629 715.166 154.092C715.85 151.555 717.504 149.389 719.772 148.062C722.039 146.736 724.738 146.354 727.285 147.001C729.831 147.648 732.02 149.271 733.38 151.52C737.38 158.41 741.26 165.63 744.82 172.97C745.561 174.494 745.902 176.183 745.811 177.876C745.72 179.569 745.2 181.211 744.3 182.647C743.4 184.084 742.15 185.269 740.666 186.09C739.183 186.91 737.515 187.34 735.82 187.34H735.83Z" fill="url(#paint16_linear_14_2)"/>
<path d="M705.37 137.64C703.824 137.65 702.297 137.301 700.909 136.62C699.521 135.94 698.31 134.948 697.37 133.72C667.37 94.4503 626.86 65.0003 577 46.1003C574.575 45.1222 572.629 43.233 571.58 40.8375C570.531 38.4421 570.462 35.731 571.388 33.2854C572.314 30.8397 574.161 28.8541 576.534 27.754C578.906 26.654 581.615 26.527 584.08 27.4003C637.48 47.6003 680.95 79.2903 713.31 121.56C714.444 123.042 715.142 124.811 715.323 126.667C715.505 128.524 715.163 130.395 714.337 132.068C713.511 133.741 712.233 135.149 710.649 136.134C709.064 137.119 707.236 137.64 705.37 137.64Z" fill="url(#paint17_linear_14_2)"/>
<path d="M546.47 35.8C545.589 35.7962 544.711 35.6785 543.86 35.45C505.74 25.2 462.22 20 414.5 20C380.78 20 346.55 20.06 317.5 20.12C314.848 20.12 312.304 19.0664 310.429 17.1911C308.554 15.3157 307.5 12.7722 307.5 10.12C307.5 7.46783 308.554 4.9243 310.429 3.04893C312.304 1.17357 314.848 0.12 317.5 0.12C346.5 0.06 380.78 0 414.5 0C464 0 509.24 5.43 549.06 16.14C551.404 16.7674 553.44 18.2259 554.789 20.2435C556.137 22.2611 556.706 24.7002 556.389 27.1061C556.072 29.512 554.891 31.7206 553.066 33.3202C551.241 34.9197 548.897 35.8011 546.47 35.8Z" fill="url(#paint18_linear_14_2)"/>
<path d="M171 20.11C168.348 20.11 165.804 19.0564 163.929 17.1811C162.054 15.3057 161 12.7622 161 10.11C161 7.45783 162.054 4.9143 163.929 3.03893C165.804 1.16357 168.348 0.11 171 0.11L195.79 0.05L217.33 0C219.982 0 222.526 1.05357 224.401 2.92893C226.276 4.8043 227.33 7.34784 227.33 10C227.33 12.6522 226.276 15.1957 224.401 17.0711C222.526 18.9464 219.982 20 217.33 20L195.8 20.05L170.98 20.11H171Z" fill="url(#paint19_linear_14_2)"/>
<path d="M10 20.12C7.34784 20.12 4.8043 19.0664 2.92893 17.1911C1.05357 15.3157 0 12.7722 0 10.12C0 7.46783 1.05357 4.9243 2.92893 3.04893C4.8043 1.17357 7.34784 0.12 10 0.12C49.83 0.12 90 0.12 136.42 0C139.072 0 141.616 1.05357 143.491 2.92893C145.366 4.8043 146.42 7.34784 146.42 10C146.42 12.6522 145.366 15.1957 143.491 17.0711C141.616 18.9464 139.072 20 136.42 20C90 20.09 49.84 20.12 10 20.12Z" fill="url(#paint20_linear_14_2)"/>
<path d="M736 488.36C731.359 488.36 726.907 486.516 723.626 483.234C720.344 479.952 718.5 475.501 718.5 470.86V420.77C718.5 416.128 720.344 411.677 723.626 408.395C726.907 405.113 731.359 403.27 736 403.27C740.641 403.27 745.093 405.113 748.374 408.395C751.656 411.677 753.5 416.128 753.5 420.77V470.86C753.497 475.5 751.653 479.95 748.371 483.231C745.09 486.512 740.64 488.357 736 488.36Z" fill="url(#paint21_linear_14_2)"/>
<path d="M693.39 585.63C690.074 585.63 686.895 584.313 684.551 581.969C682.207 579.625 680.89 576.445 680.89 573.13V445.75C680.89 442.435 682.207 439.255 684.551 436.911C686.895 434.567 690.074 433.25 693.39 433.25C696.705 433.25 699.884 434.567 702.228 436.911C704.573 439.255 705.89 442.435 705.89 445.75V573.13C705.89 576.445 704.573 579.625 702.228 581.969C699.884 584.313 696.705 585.63 693.39 585.63Z" fill="url(#paint22_linear_14_2)"/>
<path d="M693.39 641.729C690.074 641.729 686.895 640.412 684.551 638.068C682.207 635.724 680.89 632.544 680.89 629.229V613.289C680.89 609.974 682.207 606.794 684.551 604.45C686.895 602.106 690.074 600.789 693.39 600.789C696.705 600.789 699.884 602.106 702.228 604.45C704.573 606.794 705.89 609.974 705.89 613.289V629.229C705.89 632.544 704.573 635.724 702.228 638.068C699.884 640.412 696.705 641.729 693.39 641.729Z" fill="url(#paint23_linear_14_2)"/>
<path d="M736 684.27C733.701 684.271 731.425 683.82 729.302 682.941C727.178 682.062 725.248 680.773 723.623 679.147C721.997 677.522 720.708 675.592 719.829 673.469C718.95 671.345 718.499 669.069 718.5 666.77V519C718.5 514.359 720.344 509.908 723.626 506.626C726.907 503.344 731.359 501.5 736 501.5C740.641 501.5 745.093 503.344 748.374 506.626C751.656 509.908 753.5 514.359 753.5 519V666.77C753.5 671.411 751.656 675.862 748.374 679.144C745.093 682.426 740.641 684.27 736 684.27Z" fill="url(#paint24_linear_14_2)"/>
<path d="M775.87 440.2C773.218 440.2 770.674 439.146 768.799 437.271C766.924 435.395 765.87 432.852 765.87 430.2V414.26C765.87 411.608 766.924 409.064 768.799 407.189C770.674 405.313 773.218 404.26 775.87 404.26C778.522 404.26 781.066 405.313 782.941 407.189C784.817 409.064 785.87 411.608 785.87 414.26V430.2C785.87 432.852 784.817 435.395 782.941 437.271C781.066 439.146 778.522 440.2 775.87 440.2Z" fill="url(#paint25_linear_14_2)"/>
<path d="M775.87 551.35C773.218 551.35 770.674 550.296 768.799 548.421C766.924 546.545 765.87 544.002 765.87 541.35V465.18C765.87 462.528 766.924 459.984 768.799 458.109C770.674 456.233 773.218 455.18 775.87 455.18C778.522 455.18 781.066 456.233 782.941 458.109C784.817 459.984 785.87 462.528 785.87 465.18V541.35C785.87 544.002 784.817 546.545 782.941 548.421C781.066 550.296 778.522 551.35 775.87 551.35Z" fill="url(#paint26_linear_14_2)"/>
</g>
<defs>
<linearGradient id="paint0_linear_14_2" x1="939.607" y1="253.59" x2="82.2871" y2="253.59" gradientUnits="userSpaceOnUse">
<stop stop-color="#00BF9D"/>
<stop offset="0.13" stop-color="#00BF9D"/>
<stop offset="0.286458" stop-color="#00BF9D"/>
<stop offset="0.494792" stop-color="#4B65FD"/>
<stop offset="0.770833" stop-color="#38F1B9"/>
<stop offset="0.963542" stop-color="#38F1B9"/>
</linearGradient>
<linearGradient id="paint1_linear_14_2" x1="466.377" y1="132.988" x2="204.8" y2="132.988" gradientUnits="userSpaceOnUse">
<stop stop-color="#00BF9D"/>
<stop offset="0.13" stop-color="#00BF9D"/>
<stop offset="0.286458" stop-color="#00BF9D"/>
<stop offset="0.494792" stop-color="#4B65FD"/>
<stop offset="0.770833" stop-color="#38F1B9"/>
<stop offset="0.963542" stop-color="#38F1B9"/>
</linearGradient>
<linearGradient id="paint2_linear_14_2" x1="441.624" y1="132.988" x2="-39.0244" y2="132.988" gradientUnits="userSpaceOnUse">
<stop stop-color="#00BF9D"/>
<stop offset="0.13" stop-color="#00BF9D"/>
<stop offset="0.286458" stop-color="#00BF9D"/>
<stop offset="0.494792" stop-color="#4B65FD"/>
<stop offset="0.770833" stop-color="#38F1B9"/>
<stop offset="0.963542" stop-color="#38F1B9"/>
</linearGradient>
<linearGradient id="paint3_linear_14_2" x1="753.108" y1="325.819" x2="604.888" y2="325.819" gradientUnits="userSpaceOnUse">
<stop stop-color="#00BF9D"/>
<stop offset="0.13" stop-color="#00BF9D"/>
<stop offset="0.286458" stop-color="#00BF9D"/>
<stop offset="0.494792" stop-color="#4B65FD"/>
<stop offset="0.770833" stop-color="#38F1B9"/>
<stop offset="0.963542" stop-color="#38F1B9"/>
</linearGradient>
<linearGradient id="paint4_linear_14_2" x1="858.531" y1="155.607" x2="270.382" y2="155.607" gradientUnits="userSpaceOnUse">
<stop stop-color="#00BF9D"/>
<stop offset="0.13" stop-color="#00BF9D"/>
<stop offset="0.286458" stop-color="#00BF9D"/>
<stop offset="0.494792" stop-color="#4B65FD"/>
<stop offset="0.770833" stop-color="#38F1B9"/>
<stop offset="0.963542" stop-color="#38F1B9"/>
</linearGradient>
<linearGradient id="paint5_linear_14_2" x1="597.633" y1="93.97" x2="211.943" y2="93.97" gradientUnits="userSpaceOnUse">
<stop stop-color="#00BF9D"/>
<stop offset="0.13" stop-color="#00BF9D"/>
<stop offset="0.286458" stop-color="#00BF9D"/>
<stop offset="0.494792" stop-color="#4B65FD"/>
<stop offset="0.770833" stop-color="#38F1B9"/>
<stop offset="0.963542" stop-color="#38F1B9"/>
</linearGradient>
<linearGradient id="paint6_linear_14_2" x1="503.133" y1="92.9708" x2="-11.8476" y2="92.9708" gradientUnits="userSpaceOnUse">
<stop stop-color="#00BF9D"/>
<stop offset="0.13" stop-color="#00BF9D"/>
<stop offset="0.286458" stop-color="#00BF9D"/>
<stop offset="0.494792" stop-color="#4B65FD"/>
<stop offset="0.770833" stop-color="#38F1B9"/>
<stop offset="0.963542" stop-color="#38F1B9"/>
</linearGradient>
<linearGradient id="paint7_linear_14_2" x1="207.663" y1="92.9708" x2="83.9699" y2="92.9708" gradientUnits="userSpaceOnUse">
<stop stop-color="#00BF9D"/>
<stop offset="0.13" stop-color="#00BF9D"/>
<stop offset="0.286458" stop-color="#00BF9D"/>
<stop offset="0.494792" stop-color="#4B65FD"/>
<stop offset="0.770833" stop-color="#38F1B9"/>
<stop offset="0.963542" stop-color="#38F1B9"/>
</linearGradient>
<linearGradient id="paint8_linear_14_2" x1="189.295" y1="92.9708" x2="-33.0453" y2="92.9708" gradientUnits="userSpaceOnUse">
<stop stop-color="#00BF9D"/>
<stop offset="0.13" stop-color="#00BF9D"/>
<stop offset="0.286458" stop-color="#00BF9D"/>
<stop offset="0.494792" stop-color="#4B65FD"/>
<stop offset="0.770833" stop-color="#38F1B9"/>
<stop offset="0.963542" stop-color="#38F1B9"/>
</linearGradient>
<linearGradient id="paint9_linear_14_2" x1="822.311" y1="289.867" x2="607.343" y2="289.867" gradientUnits="userSpaceOnUse">
<stop stop-color="#00BF9D"/>
<stop offset="0.13" stop-color="#00BF9D"/>
<stop offset="0.286458" stop-color="#00BF9D"/>
<stop offset="0.494792" stop-color="#4B65FD"/>
<stop offset="0.770833" stop-color="#38F1B9"/>
<stop offset="0.963542" stop-color="#38F1B9"/>
</linearGradient>
<linearGradient id="paint10_linear_14_2" x1="942.151" y1="104.41" x2="166.405" y2="104.41" gradientUnits="userSpaceOnUse">
<stop stop-color="#00BF9D"/>
<stop offset="0.13" stop-color="#00BF9D"/>
<stop offset="0.286458" stop-color="#00BF9D"/>
<stop offset="0.494792" stop-color="#4B65FD"/>
<stop offset="0.770833" stop-color="#38F1B9"/>
<stop offset="0.963542" stop-color="#38F1B9"/>
</linearGradient>
<linearGradient id="paint11_linear_14_2" x1="659.613" y1="49.9669" x2="-56.4547" y2="49.9669" gradientUnits="userSpaceOnUse">
<stop stop-color="#00BF9D"/>
<stop offset="0.13" stop-color="#00BF9D"/>
<stop offset="0.286458" stop-color="#00BF9D"/>
<stop offset="0.494792" stop-color="#4B65FD"/>
<stop offset="0.770833" stop-color="#38F1B9"/>
<stop offset="0.963542" stop-color="#38F1B9"/>
</linearGradient>
<linearGradient id="paint12_linear_14_2" x1="307.331" y1="49.4864" x2="-52.338" y2="49.4864" gradientUnits="userSpaceOnUse">
<stop stop-color="#00BF9D"/>
<stop offset="0.13" stop-color="#00BF9D"/>
<stop offset="0.286458" stop-color="#00BF9D"/>
<stop offset="0.494792" stop-color="#4B65FD"/>
<stop offset="0.770833" stop-color="#38F1B9"/>
<stop offset="0.963542" stop-color="#38F1B9"/>
</linearGradient>
<linearGradient id="paint13_linear_14_2" x1="137.247" y1="49.4864" x2="-81.824" y2="49.4864" gradientUnits="userSpaceOnUse">
<stop stop-color="#00BF9D"/>
<stop offset="0.13" stop-color="#00BF9D"/>
<stop offset="0.286458" stop-color="#00BF9D"/>
<stop offset="0.494792" stop-color="#4B65FD"/>
<stop offset="0.770833" stop-color="#38F1B9"/>
<stop offset="0.963542" stop-color="#38F1B9"/>
</linearGradient>
<linearGradient id="paint14_linear_14_2" x1="815.325" y1="327.032" x2="722.064" y2="327.032" gradientUnits="userSpaceOnUse">
<stop stop-color="#00BF9D"/>
<stop offset="0.13" stop-color="#00BF9D"/>
<stop offset="0.286458" stop-color="#00BF9D"/>
<stop offset="0.494792" stop-color="#4B65FD"/>
<stop offset="0.770833" stop-color="#38F1B9"/>
<stop offset="0.963542" stop-color="#38F1B9"/>
</linearGradient>
<linearGradient id="paint15_linear_14_2" x1="803.096" y1="226.129" x2="700.329" y2="226.129" gradientUnits="userSpaceOnUse">
<stop stop-color="#00BF9D"/>
<stop offset="0.13" stop-color="#00BF9D"/>
<stop offset="0.286458" stop-color="#00BF9D"/>
<stop offset="0.494792" stop-color="#4B65FD"/>
<stop offset="0.770833" stop-color="#38F1B9"/>
<stop offset="0.963542" stop-color="#38F1B9"/>
</linearGradient>
<linearGradient id="paint16_linear_14_2" x1="778.331" y1="167.001" x2="676.96" y2="167.001" gradientUnits="userSpaceOnUse">
<stop stop-color="#00BF9D"/>
<stop offset="0.13" stop-color="#00BF9D"/>
<stop offset="0.286458" stop-color="#00BF9D"/>
<stop offset="0.494792" stop-color="#4B65FD"/>
<stop offset="0.770833" stop-color="#38F1B9"/>
<stop offset="0.963542" stop-color="#38F1B9"/>
</linearGradient>
<linearGradient id="paint17_linear_14_2" x1="867.01" y1="82.1903" x2="394.11" y2="82.1903" gradientUnits="userSpaceOnUse">
<stop stop-color="#00BF9D"/>
<stop offset="0.13" stop-color="#00BF9D"/>
<stop offset="0.286458" stop-color="#00BF9D"/>
<stop offset="0.494792" stop-color="#4B65FD"/>
<stop offset="0.770833" stop-color="#38F1B9"/>
<stop offset="0.963542" stop-color="#38F1B9"/>
</linearGradient>
<linearGradient id="paint18_linear_14_2" x1="817.515" y1="17.8861" x2="3.43865" y2="17.8861" gradientUnits="userSpaceOnUse">
<stop stop-color="#00BF9D"/>
<stop offset="0.13" stop-color="#00BF9D"/>
<stop offset="0.286458" stop-color="#00BF9D"/>
<stop offset="0.494792" stop-color="#4B65FD"/>
<stop offset="0.770833" stop-color="#38F1B9"/>
<stop offset="0.963542" stop-color="#38F1B9"/>
</linearGradient>
<linearGradient id="paint19_linear_14_2" x1="296.875" y1="10.0472" x2="79.9942" y2="10.0472" gradientUnits="userSpaceOnUse">
<stop stop-color="#00BF9D"/>
<stop offset="0.13" stop-color="#00BF9D"/>
<stop offset="0.286458" stop-color="#00BF9D"/>
<stop offset="0.494792" stop-color="#4B65FD"/>
<stop offset="0.770833" stop-color="#38F1B9"/>
<stop offset="0.963542" stop-color="#38F1B9"/>
</linearGradient>
<linearGradient id="paint20_linear_14_2" x1="299.936" y1="10.0522" x2="-178.816" y2="10.0522" gradientUnits="userSpaceOnUse">
<stop stop-color="#00BF9D"/>
<stop offset="0.13" stop-color="#00BF9D"/>
<stop offset="0.286458" stop-color="#00BF9D"/>
<stop offset="0.494792" stop-color="#4B65FD"/>
<stop offset="0.770833" stop-color="#38F1B9"/>
<stop offset="0.963542" stop-color="#38F1B9"/>
</linearGradient>
<linearGradient id="paint21_linear_14_2" x1="790.196" y1="445.781" x2="675.756" y2="445.781" gradientUnits="userSpaceOnUse">
<stop stop-color="#00BF9D"/>
<stop offset="0.13" stop-color="#00BF9D"/>
<stop offset="0.286458" stop-color="#00BF9D"/>
<stop offset="0.494792" stop-color="#4B65FD"/>
<stop offset="0.770833" stop-color="#38F1B9"/>
<stop offset="0.963542" stop-color="#38F1B9"/>
</linearGradient>
<linearGradient id="paint22_linear_14_2" x1="732.101" y1="509.381" x2="650.358" y2="509.381" gradientUnits="userSpaceOnUse">
<stop stop-color="#00BF9D"/>
<stop offset="0.13" stop-color="#00BF9D"/>
<stop offset="0.286458" stop-color="#00BF9D"/>
<stop offset="0.494792" stop-color="#4B65FD"/>
<stop offset="0.770833" stop-color="#38F1B9"/>
<stop offset="0.963542" stop-color="#38F1B9"/>
</linearGradient>
<linearGradient id="paint23_linear_14_2" x1="732.101" y1="621.243" x2="650.358" y2="621.243" gradientUnits="userSpaceOnUse">
<stop stop-color="#00BF9D"/>
<stop offset="0.13" stop-color="#00BF9D"/>
<stop offset="0.286458" stop-color="#00BF9D"/>
<stop offset="0.494792" stop-color="#4B65FD"/>
<stop offset="0.770833" stop-color="#38F1B9"/>
<stop offset="0.963542" stop-color="#38F1B9"/>
</linearGradient>
<linearGradient id="paint24_linear_14_2" x1="790.196" y1="592.814" x2="675.756" y2="592.814" gradientUnits="userSpaceOnUse">
<stop stop-color="#00BF9D"/>
<stop offset="0.13" stop-color="#00BF9D"/>
<stop offset="0.286458" stop-color="#00BF9D"/>
<stop offset="0.494792" stop-color="#4B65FD"/>
<stop offset="0.770833" stop-color="#38F1B9"/>
<stop offset="0.963542" stop-color="#38F1B9"/>
</linearGradient>
<linearGradient id="paint25_linear_14_2" x1="806.839" y1="422.216" x2="741.445" y2="422.216" gradientUnits="userSpaceOnUse">
<stop stop-color="#00BF9D"/>
<stop offset="0.13" stop-color="#00BF9D"/>
<stop offset="0.286458" stop-color="#00BF9D"/>
<stop offset="0.494792" stop-color="#4B65FD"/>
<stop offset="0.770833" stop-color="#38F1B9"/>
<stop offset="0.963542" stop-color="#38F1B9"/>
</linearGradient>
<linearGradient id="paint26_linear_14_2" x1="806.839" y1="503.227" x2="741.445" y2="503.227" gradientUnits="userSpaceOnUse">
<stop stop-color="#00BF9D"/>
<stop offset="0.13" stop-color="#00BF9D"/>
<stop offset="0.286458" stop-color="#00BF9D"/>
<stop offset="0.494792" stop-color="#4B65FD"/>
<stop offset="0.770833" stop-color="#38F1B9"/>
<stop offset="0.963542" stop-color="#38F1B9"/>
</linearGradient>
<clipPath id="clip0_14_2">
<rect width="785.87" height="684.27" fill="white"/>
</clipPath>
</defs>
</svg>
