<svg width="184" height="121" viewBox="0 0 184 121" fill="none" xmlns="http://www.w3.org/2000/svg">
<mask id="mask0_5_47" style="mask-type:luminance" maskUnits="userSpaceOnUse" x="11" y="10" width="60" height="94">
<path d="M11.8828 10.9238H70.8594L70.0979 103.754H11.1213L11.8828 10.9238Z" fill="white"/>
</mask>
<g mask="url(#mask0_5_47)">
<mask id="mask1_5_47" style="mask-type:luminance" maskUnits="userSpaceOnUse" x="11" y="64" width="60" height="40">
<path d="M11.4434 64.4375H70.4199L70.0973 103.754H11.1208L11.4434 64.4375Z" fill="white"/>
</mask>
<g mask="url(#mask1_5_47)">
<path d="M69.3277 64.4375H12.5355C11.9323 64.4375 11.4393 64.9265 11.4344 65.5296C11.4295 66.1328 11.9144 66.6217 12.5176 66.6217H69.3098C69.913 66.6217 70.406 66.1328 70.4109 65.5296C70.4158 64.9265 69.9309 64.4375 69.3277 64.4375Z" fill="white" fill-opacity="0.2"/>
<path d="M41.9701 70.9902H12.4818C11.8786 70.9902 11.3856 71.4792 11.3807 72.0824C11.3757 72.6855 11.8607 73.1745 12.4639 73.1745H41.9522C42.5554 73.1745 43.0483 72.6855 43.0533 72.0824C43.0582 71.4792 42.5733 70.9902 41.9701 70.9902Z" fill="white" fill-opacity="0.2"/>
<path d="M52.838 77.543H12.4281C11.8249 77.543 11.3319 78.0319 11.327 78.6351C11.322 79.2383 11.807 79.7272 12.4102 79.7272H52.8201C53.4232 79.7272 53.9162 79.2383 53.9212 78.6351C53.9261 78.0319 53.4412 77.543 52.838 77.543Z" fill="white" fill-opacity="0.2"/>
<mask id="mask2_5_47" style="mask-type:luminance" maskUnits="userSpaceOnUse" x="11" y="84" width="46" height="20">
<path d="M11.2822 84.0957H56.6068L56.4456 103.754H11.121L11.2822 84.0957Z" fill="white"/>
</mask>
<g mask="url(#mask2_5_47)">
<path d="M41.8627 84.0957H12.3744C11.7712 84.0957 11.2782 84.5847 11.2733 85.1878C11.2683 85.791 11.7533 86.2799 12.3565 86.2799H41.8447C42.4479 86.2799 42.9409 85.791 42.9459 85.1878C42.9508 84.5847 42.4659 84.0957 41.8627 84.0957Z" fill="white" fill-opacity="0.2"/>
<path d="M54.2975 99.3848H13.3415C12.1352 99.3848 11.1492 100.363 11.1393 101.569C11.1294 102.775 12.0993 103.753 13.3057 103.753H54.2617C55.468 103.753 56.454 102.775 56.4639 101.569C56.4738 100.363 55.5039 99.3848 54.2975 99.3848Z" fill="white" fill-opacity="0.4"/>
</g>
</g>
</g>
<mask id="mask3_5_47" style="mask-type:luminance" maskUnits="userSpaceOnUse" x="11" y="11" width="134" height="24">
<path d="M11 11H145V35H11V11Z" fill="white"/>
</mask>
<g mask="url(#mask3_5_47)">
<path d="M13.3068 20V12.559H16.3683C17.0273 12.559 17.5907 12.6653 18.0584 12.8779C18.5333 13.0905 18.8982 13.3952 19.1533 13.7921C19.4085 14.1889 19.536 14.6602 19.536 15.2059C19.536 15.7515 19.4085 16.2228 19.1533 16.6197C18.8982 17.0094 18.5333 17.3106 18.0584 17.5232C17.5907 17.7287 17.0273 17.8315 16.3683 17.8315H14.0722L14.6887 17.2043V20H13.3068ZM18.1754 20L16.2939 17.3H17.7714L19.6636 20H18.1754ZM14.6887 17.3531L14.0722 16.6941H16.3045C16.914 16.6941 17.371 16.563 17.6758 16.3008C17.9876 16.0386 18.1435 15.6736 18.1435 15.2059C18.1435 14.7311 17.9876 14.3661 17.6758 14.111C17.371 13.8559 16.914 13.7283 16.3045 13.7283H14.0722L14.6887 13.048V17.3531ZM23.729 20.0744C23.0983 20.0744 22.5455 19.9504 22.0707 19.7024C21.603 19.4472 21.238 19.1 20.9758 18.6606C20.7207 18.2212 20.5931 17.7216 20.5931 17.1618C20.5931 16.5949 20.7171 16.0952 20.9652 15.663C21.2203 15.2236 21.5675 14.8799 22.0069 14.6318C22.4534 14.3838 22.9601 14.2598 23.527 14.2598C24.0798 14.2598 24.5723 14.3803 25.0046 14.6212C25.4369 14.8622 25.777 15.2023 26.0251 15.6417C26.2731 16.0811 26.3971 16.5984 26.3971 17.1937C26.3971 17.2504 26.3936 17.3142 26.3865 17.385C26.3865 17.4559 26.3829 17.5232 26.3758 17.587H21.6455V16.7047H25.6743L25.1534 16.9811C25.1605 16.6551 25.0932 16.3681 24.9514 16.12C24.8097 15.872 24.6148 15.6771 24.3668 15.5354C24.1258 15.3937 23.8459 15.3228 23.527 15.3228C23.201 15.3228 22.914 15.3937 22.666 15.5354C22.425 15.6771 22.2337 15.8756 22.092 16.1307C21.9573 16.3787 21.89 16.6728 21.89 17.013V17.2256C21.89 17.5657 21.9679 17.8669 22.1238 18.1291C22.2797 18.3913 22.4994 18.5933 22.7829 18.735C23.0664 18.8768 23.3924 18.9476 23.7609 18.9476C24.0798 18.9476 24.3668 18.898 24.6219 18.7988C24.877 18.6996 25.1038 18.5437 25.3022 18.3311L26.0144 19.1496C25.7593 19.4472 25.4369 19.6776 25.0471 19.8405C24.6644 19.9965 24.225 20.0744 23.729 20.0744ZM31.1213 20V18.852L31.0469 18.6075V16.5984C31.0469 16.2086 30.93 15.9074 30.6961 15.6948C30.4622 15.4752 30.1079 15.3653 29.6331 15.3653C29.3142 15.3653 28.9988 15.4149 28.687 15.5141C28.3823 15.6134 28.1236 15.7515 27.911 15.9287L27.3902 14.9614C27.6949 14.7275 28.0563 14.5539 28.4744 14.4405C28.8996 14.32 29.339 14.2598 29.7926 14.2598C30.6146 14.2598 31.2489 14.4582 31.6953 14.8551C32.1489 15.2448 32.3756 15.8508 32.3756 16.6728V20H31.1213ZM29.3355 20.0744C28.9103 20.0744 28.5382 20.0035 28.2193 19.8618C27.9004 19.713 27.6524 19.511 27.4752 19.2559C27.3051 18.9937 27.2201 18.6996 27.2201 18.3736C27.2201 18.0547 27.2945 17.7677 27.4433 17.5126C27.5992 17.2575 27.8508 17.0555 28.1981 16.9067C28.5453 16.7578 29.0059 16.6834 29.58 16.6834H31.2276V17.5657H29.6756C29.2221 17.5657 28.9174 17.6401 28.7614 17.789C28.6055 17.9307 28.5276 18.1079 28.5276 18.3205C28.5276 18.5614 28.6233 18.7527 28.8146 18.8945C29.0059 19.0362 29.2717 19.1071 29.6118 19.1071C29.9378 19.1071 30.2284 19.0327 30.4835 18.8838C30.7457 18.735 30.9335 18.5153 31.0469 18.2248L31.2701 19.022C31.1426 19.3551 30.9122 19.6138 30.5792 19.798C30.2532 19.9823 29.8386 20.0744 29.3355 20.0744ZM36.802 20.0744C36.2067 20.0744 35.6752 19.9504 35.2075 19.7024C34.7468 19.4472 34.3854 19.1 34.1232 18.6606C33.861 18.2212 33.7299 17.7216 33.7299 17.1618C33.7299 16.5949 33.861 16.0952 34.1232 15.663C34.3854 15.2236 34.7468 14.8799 35.2075 14.6318C35.6752 14.3838 36.2067 14.2598 36.802 14.2598C37.3547 14.2598 37.8402 14.3732 38.2583 14.6C38.6835 14.8196 39.0059 15.1456 39.2256 15.5779L38.2051 16.1732C38.035 15.9039 37.826 15.7055 37.578 15.5779C37.337 15.4504 37.0748 15.3866 36.7913 15.3866C36.4653 15.3866 36.1712 15.4574 35.909 15.5992C35.6468 15.7409 35.4413 15.9464 35.2925 16.2157C35.1437 16.4779 35.0693 16.7933 35.0693 17.1618C35.0693 17.5303 35.1437 17.8492 35.2925 18.1185C35.4413 18.3807 35.6468 18.5827 35.909 18.7244C36.1712 18.8661 36.4653 18.937 36.7913 18.937C37.0748 18.937 37.337 18.8732 37.578 18.7457C37.826 18.6181 38.035 18.4197 38.2051 18.1504L39.2256 18.7457C39.0059 19.1709 38.6835 19.5004 38.2583 19.7342C37.8402 19.961 37.3547 20.0744 36.802 20.0744ZM42.6898 20.0744C42.0662 20.0744 41.5843 19.915 41.2441 19.5961C40.904 19.2701 40.7339 18.7917 40.7339 18.161V13.0692H42.0626V18.1291C42.0626 18.3984 42.13 18.6075 42.2646 18.7563C42.4064 18.9051 42.6012 18.9795 42.8493 18.9795C43.1469 18.9795 43.3949 18.9016 43.5934 18.7457L43.9654 19.6917C43.8095 19.8193 43.6182 19.915 43.3914 19.9787C43.1646 20.0425 42.9308 20.0744 42.6898 20.0744ZM39.7985 15.4291V14.3661H43.5827V15.4291H39.7985ZM43.9742 21.063L47.4821 11.0495H48.6727L45.1648 21.063H43.9742ZM49.3434 20V12.559H50.4808L55.1473 18.2886H54.584V12.559H55.9552V20H54.8178L50.1512 14.2704H50.7146V20H49.3434ZM60.596 20.0744C59.9653 20.0744 59.4125 19.9504 58.9377 19.7024C58.47 19.4472 58.105 19.1 57.8428 18.6606C57.5877 18.2212 57.4601 17.7216 57.4601 17.1618C57.4601 16.5949 57.5841 16.0952 57.8322 15.663C58.0873 15.2236 58.4345 14.8799 58.8739 14.6318C59.3204 14.3838 59.8271 14.2598 60.394 14.2598C60.9468 14.2598 61.4393 14.3803 61.8716 14.6212C62.3039 14.8622 62.644 15.2023 62.8921 15.6417C63.1401 16.0811 63.2641 16.5984 63.2641 17.1937C63.2641 17.2504 63.2606 17.3142 63.2535 17.385C63.2535 17.4559 63.2499 17.5232 63.2428 17.587H58.5125V16.7047H62.5413L62.0204 16.9811C62.0275 16.6551 61.9602 16.3681 61.8184 16.12C61.6767 15.872 61.4818 15.6771 61.2338 15.5354C60.9928 15.3937 60.7129 15.3228 60.394 15.3228C60.068 15.3228 59.781 15.3937 59.533 15.5354C59.292 15.6771 59.1007 15.8756 58.959 16.1307C58.8243 16.3787 58.757 16.6728 58.757 17.013V17.2256C58.757 17.5657 58.8349 17.8669 58.9908 18.1291C59.1467 18.3913 59.3664 18.5933 59.6499 18.735C59.9334 18.8768 60.2594 18.9476 60.6279 18.9476C60.9468 18.9476 61.2338 18.898 61.4889 18.7988C61.744 18.6996 61.9708 18.5437 62.1692 18.3311L62.8814 19.1496C62.6263 19.4472 62.3039 19.6776 61.9141 19.8405C61.5314 19.9965 61.092 20.0744 60.596 20.0744ZM63.715 20L66.2131 16.7472L66.1918 17.4594L63.8107 14.3236H65.2883L66.9572 16.5559H66.3938L68.0733 14.3236H69.5084L67.106 17.4594L67.1166 16.7472L69.6041 20H68.1052L66.3513 17.6295L66.904 17.7039L65.182 20H63.715ZM72.8275 20.0744C72.2039 20.0744 71.722 19.915 71.3819 19.5961C71.0417 19.2701 70.8716 18.7917 70.8716 18.161V13.0692H72.2004V18.1291C72.2004 18.3984 72.2677 18.6075 72.4023 18.7563C72.5441 18.9051 72.7389 18.9795 72.987 18.9795C73.2846 18.9795 73.5327 18.9016 73.7311 18.7457L74.1031 19.6917C73.9472 19.8193 73.7559 19.915 73.5291 19.9787C73.3023 20.0425 73.0685 20.0744 72.8275 20.0744ZM69.9362 15.4291V14.3661H73.7205V15.4291H69.9362ZM74.7178 22.1366C74.4698 22.1366 74.2359 22.1083 74.0163 22.0516C73.7895 22.002 73.5981 21.9205 73.4422 21.8071L73.8249 20.8185C74.0304 20.9673 74.2891 21.0417 74.6009 21.0417C74.8419 21.0417 75.0297 20.9638 75.1643 20.8079C75.2989 20.6591 75.3663 20.4358 75.3663 20.1382V14.3236H76.695V20.1063C76.695 20.7299 76.5214 21.2225 76.1742 21.5839C75.834 21.9524 75.3486 22.1366 74.7178 22.1366ZM76.0253 13.3881C75.7773 13.3881 75.5718 13.3102 75.4088 13.1543C75.2529 12.9984 75.1749 12.8106 75.1749 12.5909C75.1749 12.3641 75.2529 12.1763 75.4088 12.0275C75.5718 11.8716 75.7773 11.7936 76.0253 11.7936C76.2734 11.7936 76.4753 11.868 76.6312 12.0169C76.7942 12.1586 76.8757 12.3393 76.8757 12.559C76.8757 12.7929 76.7978 12.9913 76.6419 13.1543C76.486 13.3102 76.2805 13.3881 76.0253 13.3881ZM80.2978 20.0744C79.823 20.0744 79.3659 20.0142 78.9265 19.8937C78.4942 19.7661 78.1505 19.6138 77.8954 19.4366L78.4056 18.4268C78.6607 18.5898 78.9655 18.7244 79.3198 18.8307C79.6741 18.937 80.0285 18.9901 80.3828 18.9901C80.8009 18.9901 81.1021 18.9335 81.2863 18.8201C81.4777 18.7067 81.5734 18.5543 81.5734 18.363C81.5734 18.2071 81.5096 18.0901 81.382 18.0122C81.2545 17.9271 81.0879 17.8634 80.8824 17.8208C80.6769 17.7783 80.4466 17.7394 80.1915 17.7039C79.9434 17.6685 79.6918 17.6224 79.4367 17.5657C79.1887 17.5019 78.9619 17.4134 78.7564 17.3C78.5509 17.1795 78.3844 17.0201 78.2568 16.8216C78.1292 16.6232 78.0655 16.361 78.0655 16.035C78.0655 15.6736 78.1682 15.3618 78.3737 15.0996C78.5792 14.8303 78.8663 14.6248 79.2348 14.483C79.6104 14.3342 80.0533 14.2598 80.5635 14.2598C80.9462 14.2598 81.3324 14.3023 81.7222 14.3874C82.1119 14.4724 82.4344 14.5929 82.6895 14.7488L82.1793 15.7586C81.91 15.5956 81.6371 15.4858 81.3608 15.4291C81.0915 15.3653 80.8222 15.3334 80.5529 15.3334C80.1489 15.3334 79.8478 15.3937 79.6493 15.5141C79.458 15.6346 79.3623 15.787 79.3623 15.9712C79.3623 16.1413 79.4261 16.2689 79.5537 16.3539C79.6812 16.4389 79.8478 16.5063 80.0533 16.5559C80.2588 16.6055 80.4856 16.648 80.7336 16.6834C80.9887 16.7118 81.2403 16.7578 81.4883 16.8216C81.7364 16.8854 81.9631 16.974 82.1686 17.0874C82.3812 17.1937 82.5513 17.346 82.6789 17.5445C82.8064 17.7429 82.8702 18.0016 82.8702 18.3205C82.8702 18.6748 82.7639 18.9831 82.5513 19.2453C82.3458 19.5075 82.0517 19.713 81.669 19.8618C81.2863 20.0035 80.8293 20.0744 80.2978 20.0744Z" fill="white"/>
<path d="M13.2138 32V25.959H15.7596C16.404 25.959 16.9707 26.0856 17.4597 26.3387C17.9545 26.5919 18.3371 26.9457 18.6075 27.4002C18.8837 27.8547 19.0218 28.3812 19.0218 28.9795C19.0218 29.5778 18.8837 30.1043 18.6075 30.5588C18.3371 31.0133 17.9545 31.3671 17.4597 31.6203C16.9707 31.8734 16.404 32 15.7596 32H13.2138ZM14.0768 31.2492H15.7078C16.2084 31.2492 16.6399 31.1543 17.0023 30.9644C17.3706 30.7745 17.6553 30.5099 17.8567 30.1704C18.0581 29.8252 18.1588 29.4283 18.1588 28.9795C18.1588 28.525 18.0581 28.128 17.8567 27.7886C17.6553 27.4491 17.3706 27.1845 17.0023 26.9946C16.6399 26.8047 16.2084 26.7098 15.7078 26.7098H14.0768V31.2492ZM22.3458 32.0518C21.8568 32.0518 21.4253 31.9511 21.0513 31.7497C20.6831 31.5484 20.3954 31.2722 20.1883 30.9212C19.9869 30.5703 19.8862 30.1676 19.8862 29.713C19.8862 29.2585 19.984 28.8558 20.1797 28.5048C20.381 28.1539 20.6543 27.8806 20.9995 27.685C21.3505 27.4836 21.7446 27.3829 22.1818 27.3829C22.6248 27.3829 23.0161 27.4808 23.3555 27.6764C23.6949 27.872 23.9596 28.1481 24.1495 28.5048C24.3451 28.8558 24.4429 29.2672 24.4429 29.7389C24.4429 29.7735 24.44 29.8137 24.4343 29.8598C24.4343 29.9058 24.4314 29.9489 24.4256 29.9892H20.5335V29.3937H23.9941L23.6576 29.6009C23.6633 29.3074 23.6029 29.0457 23.4763 28.8155C23.3497 28.5854 23.1743 28.407 22.9499 28.2805C22.7313 28.1481 22.4752 28.082 22.1818 28.082C21.8942 28.082 21.6381 28.1481 21.4138 28.2805C21.1894 28.407 21.0139 28.5883 20.8873 28.8242C20.7607 29.0543 20.6975 29.3189 20.6975 29.6181V29.7562C20.6975 30.0611 20.7665 30.3344 20.9046 30.576C21.0484 30.8119 21.2469 30.996 21.5001 31.1284C21.7532 31.2607 22.0437 31.3269 22.3717 31.3269C22.6421 31.3269 22.8866 31.2808 23.1052 31.1888C23.3296 31.0967 23.5252 30.9586 23.6921 30.7745L24.1495 31.3096C23.9423 31.5512 23.6834 31.7353 23.3728 31.8619C23.0678 31.9885 22.7255 32.0518 22.3458 32.0518ZM26.7949 32L24.7927 27.4261H25.6557L27.4335 31.5685H27.0193L28.8316 27.4261H29.6428L27.6406 32H26.7949ZM32.4126 32.0518C31.9235 32.0518 31.492 31.9511 31.118 31.7497C30.7498 31.5484 30.4622 31.2722 30.2551 30.9212C30.0537 30.5703 29.953 30.1676 29.953 29.713C29.953 29.2585 30.0508 28.8558 30.2464 28.5048C30.4478 28.1539 30.7211 27.8806 31.0663 27.685C31.4172 27.4836 31.8113 27.3829 32.2486 27.3829C32.6916 27.3829 33.0828 27.4808 33.4223 27.6764C33.7617 27.872 34.0264 28.1481 34.2162 28.5048C34.4118 28.8558 34.5096 29.2672 34.5096 29.7389C34.5096 29.7735 34.5068 29.8137 34.501 29.8598C34.501 29.9058 34.4981 29.9489 34.4924 29.9892H30.6002V29.3937H34.0609L33.7243 29.6009C33.7301 29.3074 33.6697 29.0457 33.5431 28.8155C33.4165 28.5854 33.241 28.407 33.0167 28.2805C32.798 28.1481 32.542 28.082 32.2486 28.082C31.9609 28.082 31.7049 28.1481 31.4805 28.2805C31.2561 28.407 31.0807 28.5883 30.9541 28.8242C30.8275 29.0543 30.7642 29.3189 30.7642 29.6181V29.7562C30.7642 30.0611 30.8333 30.3344 30.9713 30.576C31.1152 30.8119 31.3137 30.996 31.5668 31.1284C31.82 31.2607 32.1105 31.3269 32.4384 31.3269C32.7088 31.3269 32.9534 31.2808 33.172 31.1888C33.3964 31.0967 33.592 30.9586 33.7588 30.7745L34.2162 31.3096C34.0091 31.5512 33.7502 31.7353 33.4395 31.8619C33.1346 31.9885 32.7923 32.0518 32.4126 32.0518ZM35.7464 32V25.5965H36.5748V32H35.7464ZM40.202 32.0518C39.7417 32.0518 39.3332 31.9511 38.9765 31.7497C38.6198 31.5484 38.3379 31.2722 38.1308 30.9212C37.9237 30.5645 37.8201 30.1618 37.8201 29.713C37.8201 29.2585 37.9237 28.8558 38.1308 28.5048C38.3379 28.1539 38.6198 27.8806 38.9765 27.685C39.3332 27.4836 39.7417 27.3829 40.202 27.3829C40.6565 27.3829 41.0621 27.4836 41.4188 27.685C41.7813 27.8806 42.0632 28.1539 42.2646 28.5048C42.4717 28.85 42.5753 29.2528 42.5753 29.713C42.5753 30.1676 42.4717 30.5703 42.2646 30.9212C42.0632 31.2722 41.7813 31.5484 41.4188 31.7497C41.0621 31.9511 40.6565 32.0518 40.202 32.0518ZM40.202 31.3269C40.4954 31.3269 40.7572 31.2607 40.9873 31.1284C41.2232 30.996 41.4073 30.8091 41.5397 30.5674C41.672 30.32 41.7381 30.0352 41.7381 29.713C41.7381 29.3851 41.672 29.1032 41.5397 28.8673C41.4073 28.6257 41.2232 28.4387 40.9873 28.3064C40.7572 28.174 40.4954 28.1079 40.202 28.1079C39.9086 28.1079 39.6468 28.174 39.4167 28.3064C39.1865 28.4387 39.0024 28.6257 38.8644 28.8673C38.7263 29.1032 38.6572 29.3851 38.6572 29.713C38.6572 30.0352 38.7263 30.32 38.8644 30.5674C39.0024 30.8091 39.1865 30.996 39.4167 31.1284C39.6468 31.2607 39.9086 31.3269 40.202 31.3269ZM46.2323 32.0518C45.8526 32.0518 45.5046 31.9655 45.1881 31.7929C44.8774 31.6145 44.6272 31.3527 44.4373 31.0075C44.2532 30.6623 44.1611 30.2308 44.1611 29.713C44.1611 29.1952 44.2503 28.7637 44.4287 28.4185C44.6128 28.0733 44.8602 27.8144 45.1709 27.6418C45.4873 27.4692 45.8411 27.3829 46.2323 27.3829C46.6811 27.3829 47.0781 27.4808 47.4233 27.6764C47.7685 27.872 48.0418 28.1453 48.2431 28.4962C48.4445 28.8414 48.5452 29.247 48.5452 29.713C48.5452 30.1791 48.4445 30.5876 48.2431 30.9385C48.0418 31.2895 47.7685 31.5627 47.4233 31.7584C47.0781 31.954 46.6811 32.0518 46.2323 32.0518ZM43.8073 33.6742V27.4261H44.6013V28.6602L44.5495 29.7217L44.6358 30.7832V33.6742H43.8073ZM46.1633 31.3269C46.4567 31.3269 46.7185 31.2607 46.9486 31.1284C47.1845 30.996 47.3686 30.8091 47.501 30.5674C47.639 30.32 47.7081 30.0352 47.7081 29.713C47.7081 29.3851 47.639 29.1032 47.501 28.8673C47.3686 28.6257 47.1845 28.4387 46.9486 28.3064C46.7185 28.174 46.4567 28.1079 46.1633 28.1079C45.8756 28.1079 45.6139 28.174 45.378 28.3064C45.1478 28.4387 44.9637 28.6257 44.8257 28.8673C44.6933 29.1032 44.6272 29.3851 44.6272 29.713C44.6272 30.0352 44.6933 30.32 44.8257 30.5674C44.9637 30.8091 45.1478 30.996 45.378 31.1284C45.6139 31.2607 45.8756 31.3269 46.1633 31.3269ZM55.4979 27.3829C55.8661 27.3829 56.1911 27.4549 56.4731 27.5987C56.755 27.7425 56.9736 27.9612 57.1289 28.2546C57.29 28.548 57.3706 28.9191 57.3706 29.3678V32H56.5421V29.4628C56.5421 29.0198 56.4385 28.6861 56.2314 28.4617C56.0243 28.2373 55.7338 28.1251 55.3598 28.1251C55.0836 28.1251 54.842 28.1827 54.6349 28.2977C54.4277 28.4128 54.2667 28.5825 54.1516 28.8069C54.0423 29.0313 53.9876 29.3103 53.9876 29.644V32H53.1591V29.4628C53.1591 29.0198 53.0556 28.6861 52.8485 28.4617C52.6471 28.2373 52.3565 28.1251 51.9768 28.1251C51.7064 28.1251 51.4677 28.1827 51.2605 28.2977C51.0534 28.4128 50.8923 28.5825 50.7773 28.8069C50.6622 29.0313 50.6047 29.3103 50.6047 29.644V32H49.7762V27.4261H50.5701V28.6429L50.4407 28.3322C50.5845 28.0331 50.806 27.8001 51.1052 27.6332C51.4044 27.4664 51.7524 27.3829 52.1494 27.3829C52.5867 27.3829 52.9635 27.4923 53.28 27.7109C53.5964 27.9238 53.8035 28.2488 53.9013 28.6861L53.5647 28.548C53.7028 28.197 53.9445 27.9151 54.2897 27.7023C54.6349 27.4894 55.0376 27.3829 55.4979 27.3829ZM61.018 32.0518C60.5289 32.0518 60.0974 31.9511 59.7235 31.7497C59.3553 31.5484 59.0676 31.2722 58.8605 30.9212C58.6591 30.5703 58.5584 30.1676 58.5584 29.713C58.5584 29.2585 58.6562 28.8558 58.8518 28.5048C59.0532 28.1539 59.3265 27.8806 59.6717 27.685C60.0226 27.4836 60.4167 27.3829 60.854 27.3829C61.297 27.3829 61.6882 27.4808 62.0277 27.6764C62.3671 27.872 62.6318 28.1481 62.8216 28.5048C63.0173 28.8558 63.1151 29.2672 63.1151 29.7389C63.1151 29.7735 63.1122 29.8137 63.1064 29.8598C63.1064 29.9058 63.1036 29.9489 63.0978 29.9892H59.2057V29.3937H62.6663L62.3297 29.6009C62.3355 29.3074 62.2751 29.0457 62.1485 28.8155C62.0219 28.5854 61.8464 28.407 61.6221 28.2805C61.4034 28.1481 61.1474 28.082 60.854 28.082C60.5663 28.082 60.3103 28.1481 60.0859 28.2805C59.8615 28.407 59.6861 28.5883 59.5595 28.8242C59.4329 29.0543 59.3696 29.3189 59.3696 29.6181V29.7562C59.3696 30.0611 59.4387 30.3344 59.5768 30.576C59.7206 30.8119 59.9191 30.996 60.1722 31.1284C60.4254 31.2607 60.7159 31.3269 61.0439 31.3269C61.3143 31.3269 61.5588 31.2808 61.7774 31.1888C62.0018 31.0967 62.1974 30.9586 62.3642 30.7745L62.8216 31.3096C62.6145 31.5512 62.3556 31.7353 62.0449 31.8619C61.74 31.9885 61.3977 32.0518 61.018 32.0518ZM66.7941 27.3829C67.168 27.3829 67.496 27.4549 67.7779 27.5987C68.0656 27.7425 68.2899 27.9612 68.451 28.2546C68.6121 28.548 68.6927 28.9191 68.6927 29.3678V32H67.8642V29.4628C67.8642 29.0198 67.7549 28.6861 67.5362 28.4617C67.3234 28.2373 67.0213 28.1251 66.6301 28.1251C66.3367 28.1251 66.0807 28.1827 65.862 28.2977C65.6434 28.4128 65.4737 28.5825 65.3529 28.8069C65.2378 29.0313 65.1803 29.3103 65.1803 29.644V32H64.3518V27.4261H65.1457V28.6602L65.0163 28.3322C65.1659 28.0331 65.396 27.8001 65.7067 27.6332C66.0174 27.4664 66.3798 27.3829 66.7941 27.3829ZM71.8829 32.0518C71.4226 32.0518 71.0659 31.9281 70.8127 31.6807C70.5596 31.4333 70.433 31.0795 70.433 30.6192V26.425H71.2615V30.5847C71.2615 30.8321 71.3219 31.0219 71.4427 31.1543C71.5693 31.2866 71.7477 31.3527 71.9778 31.3527C72.2367 31.3527 72.4524 31.2808 72.625 31.137L72.8839 31.7325C72.7574 31.8418 72.6049 31.9223 72.4266 31.9741C72.254 32.0259 72.0727 32.0518 71.8829 32.0518ZM69.6563 28.1079V27.4261H72.5733V28.1079H69.6563Z" fill="white" fill-opacity="0.71"/>
</g>
<mask id="mask4_5_47" style="mask-type:luminance" maskUnits="userSpaceOnUse" x="149" y="9" width="26" height="26">
<path d="M151.004 9.32812L174.992 10.8997L173.605 34.878L149.617 33.3064L151.004 9.32812Z" fill="white"/>
</mask>
<g mask="url(#mask4_5_47)">
<path fill-rule="evenodd" clip-rule="evenodd" d="M161.61 34.0923C168.234 34.5263 173.914 29.5104 174.297 22.889C174.68 16.2676 169.621 10.5481 162.997 10.1141C156.373 9.68004 150.692 14.696 150.309 21.3174C149.926 27.9388 154.985 33.6583 161.61 34.0923Z" fill="url(#paint0_linear_5_47)"/>
<path fill-rule="evenodd" clip-rule="evenodd" d="M161.61 34.0923C168.234 34.5263 173.914 29.5104 174.297 22.889C174.68 16.2676 169.621 10.5481 162.997 10.1141C156.373 9.68004 150.692 14.696 150.309 21.3174C149.926 27.9388 154.985 33.6583 161.61 34.0923Z" stroke="black" stroke-opacity="0.3" stroke-width="0.27304"/>
</g>
<path d="M161.987 23.3277C162.726 23.3277 163.326 22.7284 163.326 21.9891C163.326 21.2497 162.726 20.6504 161.987 20.6504C161.248 20.6504 160.648 21.2497 160.648 21.9891C160.648 22.7284 161.248 23.3277 161.987 23.3277Z" fill="#0B112F"/>
<path d="M161.986 25.0559C160.106 25.0559 158.464 24.8346 157.234 24.4132C156.437 24.1412 155.76 23.7786 155.277 23.3652C154.765 22.9279 154.493 22.4506 154.493 21.9892C154.493 21.1039 155.464 20.2372 157.093 19.6719C158.426 19.2079 160.165 18.9492 161.984 18.9492C163.77 18.9492 165.485 19.1999 166.81 19.6586C167.586 19.9252 168.24 20.2719 168.704 20.6559C169.208 21.0772 169.474 21.5386 169.474 21.9892C169.474 22.9092 168.389 23.8399 166.64 24.4186C165.402 24.8292 163.749 25.0559 161.986 25.0559ZM161.986 19.5892C160.261 19.5892 158.554 19.8399 157.306 20.2746C155.808 20.7972 155.136 21.5119 155.136 21.9892C155.136 22.4852 155.858 23.2666 157.442 23.8079C158.605 24.2052 160.178 24.4159 161.986 24.4159C163.682 24.4159 165.264 24.2026 166.44 23.8106C168.085 23.2639 168.837 22.4826 168.837 21.9892C168.837 21.7359 168.645 21.4372 168.296 21.1466C167.893 20.8106 167.306 20.5039 166.605 20.2612C165.344 19.8292 163.704 19.5892 161.986 19.5892Z" fill="#0B112F"/>
<path d="M158.949 28.6622C158.677 28.6622 158.437 28.6035 158.234 28.4862C157.469 28.0435 157.202 26.7688 157.525 25.0755C157.789 23.6862 158.434 22.0542 159.344 20.4782C160.237 18.9315 161.309 17.5715 162.368 16.6515C162.986 16.1128 163.613 15.7182 164.178 15.5102C164.794 15.2835 165.328 15.2835 165.717 15.5075C166.514 15.9662 166.778 17.3742 166.405 19.1768C166.141 20.4568 165.512 22.0008 164.632 23.5288C163.693 25.1555 162.68 26.4675 161.701 27.3235C161.066 27.8782 160.413 28.2835 159.816 28.4942C159.504 28.6062 159.21 28.6622 158.949 28.6622ZM159.618 20.6382L159.896 20.7982C159.034 22.2915 158.397 23.8942 158.152 25.1955C157.856 26.7555 158.141 27.6942 158.552 27.9315C158.653 27.9902 158.786 28.0222 158.949 28.0222C159.48 28.0222 160.314 27.6862 161.28 26.8435C162.205 26.0355 163.173 24.7768 164.077 23.2115C164.925 21.7422 165.528 20.2648 165.778 19.0515C166.128 17.3528 165.826 16.3128 165.397 16.0648C165.178 15.9395 164.824 15.9555 164.397 16.1128C163.904 16.2942 163.346 16.6488 162.786 17.1368C161.781 18.0115 160.754 19.3128 159.896 20.8008L159.618 20.6382Z" fill="#0B112F"/>
<path d="M165.024 28.669C164.299 28.669 163.379 28.2317 162.419 27.405C161.347 26.4823 160.256 25.109 159.344 23.533C158.448 21.9863 157.808 20.3783 157.539 18.9997C157.382 18.1943 157.352 17.4557 157.454 16.861C157.566 16.213 157.83 15.7517 158.222 15.525C159.016 15.0637 160.368 15.5383 161.744 16.7623C162.72 17.629 163.744 18.9463 164.627 20.4717C165.568 22.0983 166.2 23.6317 166.451 24.9063C166.614 25.733 166.64 26.501 166.526 27.125C166.403 27.789 166.126 28.261 165.726 28.493C165.526 28.6103 165.288 28.669 165.024 28.669ZM159.899 23.213C160.763 24.7063 161.835 26.0583 162.838 26.9197C164.04 27.9543 164.995 28.1783 165.408 27.9383C165.838 27.6903 166.152 26.6743 165.827 25.0317C165.587 23.8263 164.982 22.3597 164.075 20.7943C163.224 19.325 162.246 18.0637 161.32 17.2423C160.024 16.0903 158.974 15.8317 158.544 16.0797C158.326 16.205 158.163 16.5223 158.086 16.9703C157.998 17.4877 158.024 18.149 158.168 18.877C158.424 20.1863 159.038 21.725 159.899 23.213Z" fill="#0B112F"/>
<defs>
<linearGradient id="paint0_linear_5_47" x1="162.997" y1="10.1141" x2="161.427" y2="34.0804" gradientUnits="userSpaceOnUse">
<stop stop-color="#38F1B9"/>
<stop offset="1" stop-color="#38F1B9"/>
</linearGradient>
</defs>
</svg>
