<svg width="184" height="121" viewBox="0 0 184 121" fill="none" xmlns="http://www.w3.org/2000/svg">
<mask id="mask0_5_101" style="mask-type:luminance" maskUnits="userSpaceOnUse" x="149" y="9" width="26" height="26">
<path d="M151.004 9.32812L174.992 10.8997L173.605 34.878L149.617 33.3064L151.004 9.32812Z" fill="white"/>
</mask>
<g mask="url(#mask0_5_101)">
<path fill-rule="evenodd" clip-rule="evenodd" d="M161.61 34.0923C168.234 34.5263 173.914 29.5104 174.297 22.889C174.68 16.2676 169.621 10.5481 162.997 10.1141C156.373 9.68004 150.692 14.696 150.309 21.3174C149.926 27.9388 154.985 33.6583 161.61 34.0923Z" fill="url(#paint0_linear_5_101)"/>
<path fill-rule="evenodd" clip-rule="evenodd" d="M161.61 34.0923C168.234 34.5263 173.914 29.5104 174.297 22.889C174.68 16.2676 169.621 10.5481 162.997 10.1141C156.373 9.68004 150.692 14.696 150.309 21.3174C149.926 27.9388 154.985 33.6583 161.61 34.0923Z" stroke="black" stroke-opacity="0.3" stroke-width="0.27304"/>
</g>
<mask id="mask1_5_101" style="mask-type:luminance" maskUnits="userSpaceOnUse" x="11" y="10" width="60" height="94">
<path d="M11.8828 10.9238H70.8594L70.0979 103.754H11.1213L11.8828 10.9238Z" fill="white"/>
</mask>
<g mask="url(#mask1_5_101)">
<mask id="mask2_5_101" style="mask-type:luminance" maskUnits="userSpaceOnUse" x="11" y="64" width="60" height="40">
<path d="M11.4434 64.4375H70.4199L70.0973 103.754H11.1208L11.4434 64.4375Z" fill="white"/>
</mask>
<g mask="url(#mask2_5_101)">
<path d="M69.3277 64.4375H12.5355C11.9323 64.4375 11.4393 64.9265 11.4344 65.5296C11.4295 66.1328 11.9144 66.6217 12.5176 66.6217H69.3098C69.913 66.6217 70.406 66.1328 70.4109 65.5296C70.4158 64.9265 69.9309 64.4375 69.3277 64.4375Z" fill="white" fill-opacity="0.2"/>
<path d="M41.9701 70.9902H12.4818C11.8786 70.9902 11.3856 71.4792 11.3807 72.0824C11.3757 72.6855 11.8607 73.1745 12.4639 73.1745H41.9522C42.5554 73.1745 43.0483 72.6855 43.0533 72.0824C43.0582 71.4792 42.5733 70.9902 41.9701 70.9902Z" fill="white" fill-opacity="0.2"/>
<path d="M52.838 77.543H12.4281C11.8249 77.543 11.3319 78.0319 11.327 78.6351C11.322 79.2383 11.807 79.7272 12.4102 79.7272H52.8201C53.4232 79.7272 53.9162 79.2383 53.9212 78.6351C53.9261 78.0319 53.4412 77.543 52.838 77.543Z" fill="white" fill-opacity="0.2"/>
<mask id="mask3_5_101" style="mask-type:luminance" maskUnits="userSpaceOnUse" x="11" y="84" width="46" height="20">
<path d="M11.2822 84.0957H56.6068L56.4456 103.754H11.121L11.2822 84.0957Z" fill="white"/>
</mask>
<g mask="url(#mask3_5_101)">
<path d="M41.8627 84.0957H12.3744C11.7712 84.0957 11.2782 84.5847 11.2733 85.1878C11.2683 85.791 11.7533 86.2799 12.3565 86.2799H41.8447C42.4479 86.2799 42.9409 85.791 42.9459 85.1878C42.9508 84.5847 42.4659 84.0957 41.8627 84.0957Z" fill="white" fill-opacity="0.2"/>
<path d="M54.2975 99.3848H13.3415C12.1352 99.3848 11.1492 100.363 11.1393 101.569C11.1294 102.775 12.0993 103.753 13.3057 103.753H54.2617C55.468 103.753 56.454 102.775 56.4639 101.569C56.4738 100.363 55.5039 99.3848 54.2975 99.3848Z" fill="white" fill-opacity="0.4"/>
</g>
</g>
</g>
<mask id="mask4_5_101" style="mask-type:luminance" maskUnits="userSpaceOnUse" x="11" y="11" width="134" height="24">
<path d="M11 11H145V35H11V11Z" fill="white"/>
</mask>
<g mask="url(#mask4_5_101)">
<path d="M13.3068 20V12.559H16.3683C17.0273 12.559 17.5907 12.6653 18.0584 12.8779C18.5333 13.0905 18.8982 13.3952 19.1533 13.7921C19.4085 14.1889 19.536 14.6602 19.536 15.2059C19.536 15.7515 19.4085 16.2228 19.1533 16.6197C18.8982 17.0165 18.5333 17.3212 18.0584 17.5338C17.5907 17.7464 17.0273 17.8527 16.3683 17.8527H14.0722L14.6887 17.2043V20H13.3068ZM14.6887 17.3531L14.0722 16.6834H16.3045C16.914 16.6834 17.371 16.5559 17.6758 16.3008C17.9876 16.0386 18.1435 15.6736 18.1435 15.2059C18.1435 14.7311 17.9876 14.3661 17.6758 14.111C17.371 13.8559 16.914 13.7283 16.3045 13.7283H14.0722L14.6887 13.048V17.3531ZM21.4144 22.1366C21.138 22.1366 20.8616 22.0906 20.5852 21.9984C20.3089 21.9063 20.0785 21.7788 19.8943 21.6158L20.4258 20.6378C20.5604 20.7583 20.7128 20.8539 20.8829 20.9248C21.053 20.9957 21.2266 21.0311 21.4037 21.0311C21.6447 21.0311 21.8396 20.9709 21.9884 20.8504C22.1372 20.7299 22.2754 20.528 22.403 20.2445L22.7325 19.5004L22.8388 19.3409L24.9861 14.3236H26.2617L23.6042 20.4571C23.427 20.8823 23.2286 21.2189 23.0089 21.4669C22.7963 21.715 22.5553 21.8886 22.286 21.9878C22.0238 22.087 21.7333 22.1366 21.4144 22.1366ZM22.5837 20.202L20.0218 14.3236H21.4037L23.4872 19.224L22.5837 20.202ZM29.4908 20.0744C28.8671 20.0744 28.3852 19.915 28.0451 19.5961C27.7049 19.2701 27.5348 18.7917 27.5348 18.161V13.0692H28.8636V18.1291C28.8636 18.3984 28.9309 18.6075 29.0656 18.7563C29.2073 18.9051 29.4022 18.9795 29.6502 18.9795C29.9479 18.9795 30.1959 18.9016 30.3943 18.7457L30.7664 19.6917C30.6105 19.8193 30.4191 19.915 30.1923 19.9787C29.9656 20.0425 29.7317 20.0744 29.4908 20.0744ZM26.5994 15.4291V14.3661H30.3837V15.4291H26.5994ZM35.1866 14.2598C35.6402 14.2598 36.0441 14.3484 36.3984 14.5255C36.7599 14.7027 37.0433 14.9756 37.2488 15.3441C37.4544 15.7055 37.5571 16.1732 37.5571 16.7472V20H36.2284V16.9173C36.2284 16.4141 36.1079 16.0386 35.8669 15.7905C35.6331 15.5425 35.3035 15.4185 34.8783 15.4185C34.5665 15.4185 34.2902 15.4822 34.0492 15.6098C33.8083 15.7374 33.6205 15.9287 33.4858 16.1838C33.3583 16.4319 33.2945 16.7472 33.2945 17.1299V20H31.9657V12.1125H33.2945V15.8543L33.0075 15.3866C33.2059 15.0252 33.4929 14.7488 33.8685 14.5574C34.2512 14.359 34.6906 14.2598 35.1866 14.2598ZM41.9106 20.0744C41.3295 20.0744 40.8122 19.9504 40.3586 19.7024C39.9051 19.4472 39.5472 19.1 39.285 18.6606C39.0228 18.2212 38.8917 17.7216 38.8917 17.1618C38.8917 16.5949 39.0228 16.0952 39.285 15.663C39.5472 15.2236 39.9051 14.8799 40.3586 14.6318C40.8122 14.3838 41.3295 14.2598 41.9106 14.2598C42.4988 14.2598 43.0197 14.3838 43.4732 14.6318C43.9338 14.8799 44.2917 15.22 44.5468 15.6523C44.809 16.0846 44.9401 16.5878 44.9401 17.1618C44.9401 17.7216 44.809 18.2212 44.5468 18.6606C44.2917 19.1 43.9338 19.4472 43.4732 19.7024C43.0197 19.9504 42.4988 20.0744 41.9106 20.0744ZM41.9106 18.937C42.2366 18.937 42.5271 18.8661 42.7823 18.7244C43.0374 18.5827 43.2358 18.3772 43.3775 18.1079C43.5264 17.8386 43.6008 17.5232 43.6008 17.1618C43.6008 16.7933 43.5264 16.4779 43.3775 16.2157C43.2358 15.9464 43.0374 15.7409 42.7823 15.5992C42.5271 15.4574 42.2401 15.3866 41.9212 15.3866C41.5952 15.3866 41.3047 15.4574 41.0496 15.5992C40.8015 15.7409 40.6031 15.9464 40.4543 16.2157C40.3055 16.4779 40.2311 16.7933 40.2311 17.1618C40.2311 17.5232 40.3055 17.8386 40.4543 18.1079C40.6031 18.3772 40.8015 18.5827 41.0496 18.7244C41.3047 18.8661 41.5917 18.937 41.9106 18.937ZM49.5379 14.2598C49.9915 14.2598 50.3954 14.3484 50.7498 14.5255C51.1112 14.7027 51.3947 14.9756 51.6002 15.3441C51.8057 15.7055 51.9084 16.1732 51.9084 16.7472V20H50.5797V16.9173C50.5797 16.4141 50.4592 16.0386 50.2183 15.7905C49.9844 15.5425 49.6549 15.4185 49.2297 15.4185C48.9179 15.4185 48.6415 15.4822 48.4005 15.6098C48.1596 15.7374 47.9718 15.9287 47.8371 16.1838C47.7096 16.4319 47.6458 16.7472 47.6458 17.1299V20H46.3171V14.3236H47.582V15.8543L47.3588 15.3866C47.5572 15.0252 47.8442 14.7488 48.2198 14.5574C48.6025 14.359 49.0419 14.2598 49.5379 14.2598ZM52.5098 21.063L56.0177 11.0495H57.2082L53.7003 21.063H52.5098ZM57.8789 20V12.559H61.1317C61.9396 12.559 62.6483 12.7149 63.2577 13.0267C63.8672 13.3385 64.342 13.7708 64.6821 14.3236C65.0223 14.8763 65.1924 15.5283 65.1924 16.2795C65.1924 17.0236 65.0223 17.6756 64.6821 18.2354C64.342 18.7882 63.8672 19.2205 63.2577 19.5323C62.6483 19.8441 61.9396 20 61.1317 20H57.8789ZM59.2608 18.8307H61.0679C61.6278 18.8307 62.1097 18.7244 62.5136 18.5118C62.9246 18.2992 63.24 18.0016 63.4597 17.6189C63.6865 17.2362 63.7998 16.7897 63.7998 16.2795C63.7998 15.7622 63.6865 15.3157 63.4597 14.9401C63.24 14.5574 62.9246 14.2598 62.5136 14.0472C62.1097 13.8346 61.6278 13.7283 61.0679 13.7283H59.2608V18.8307ZM66.9065 22.1366C66.6584 22.1366 66.4246 22.1083 66.2049 22.0516C65.9781 22.002 65.7868 21.9205 65.6309 21.8071L66.0135 20.8185C66.219 20.9673 66.4777 21.0417 66.7895 21.0417C67.0305 21.0417 67.2183 20.9638 67.3529 20.8079C67.4876 20.6591 67.5549 20.4358 67.5549 20.1382V14.3236H68.8836V20.1063C68.8836 20.7299 68.71 21.2225 68.3628 21.5839C68.0226 21.9524 67.5372 22.1366 66.9065 22.1366ZM68.2139 13.3881C67.9659 13.3881 67.7604 13.3102 67.5974 13.1543C67.4415 12.9984 67.3635 12.8106 67.3635 12.5909C67.3635 12.3641 67.4415 12.1763 67.5974 12.0275C67.7604 11.8716 67.9659 11.7936 68.2139 11.7936C68.462 11.7936 68.6639 11.868 68.8199 12.0169C68.9828 12.1586 69.0643 12.3393 69.0643 12.559C69.0643 12.7929 68.9864 12.9913 68.8305 13.1543C68.6746 13.3102 68.4691 13.3881 68.2139 13.3881ZM74.2297 20V18.852L74.1553 18.6075V16.5984C74.1553 16.2086 74.0384 15.9074 73.8045 15.6948C73.5706 15.4752 73.2163 15.3653 72.7415 15.3653C72.4226 15.3653 72.1072 15.4149 71.7954 15.5141C71.4907 15.6134 71.232 15.7515 71.0194 15.9287L70.4986 14.9614C70.8033 14.7275 71.1647 14.5539 71.5828 14.4405C72.008 14.32 72.4474 14.2598 72.9009 14.2598C73.723 14.2598 74.3573 14.4582 74.8037 14.8551C75.2573 15.2448 75.484 15.8508 75.484 16.6728V20H74.2297ZM72.4439 20.0744C72.0187 20.0744 71.6466 20.0035 71.3277 19.8618C71.0088 19.713 70.7608 19.511 70.5836 19.2559C70.4135 18.9937 70.3285 18.6996 70.3285 18.3736C70.3285 18.0547 70.4029 17.7677 70.5517 17.5126C70.7076 17.2575 70.9592 17.0555 71.3064 16.9067C71.6537 16.7578 72.1143 16.6834 72.6883 16.6834H74.336V17.5657H72.784C72.3305 17.5657 72.0257 17.6401 71.8698 17.789C71.7139 17.9307 71.636 18.1079 71.636 18.3205C71.636 18.5614 71.7316 18.7527 71.923 18.8945C72.1143 19.0362 72.3801 19.1071 72.7202 19.1071C73.0462 19.1071 73.3368 19.0327 73.5919 18.8838C73.8541 18.735 74.0419 18.5153 74.1553 18.2248L74.3785 19.022C74.251 19.3551 74.0206 19.6138 73.6876 19.798C73.3616 19.9823 72.947 20.0744 72.4439 20.0744ZM80.5165 14.2598C80.9701 14.2598 81.374 14.3484 81.7283 14.5255C82.0897 14.7027 82.3732 14.9756 82.5787 15.3441C82.7842 15.7055 82.887 16.1732 82.887 16.7472V20H81.5582V16.9173C81.5582 16.4141 81.4378 16.0386 81.1968 15.7905C80.963 15.5425 80.6334 15.4185 80.2082 15.4185C79.8964 15.4185 79.62 15.4822 79.3791 15.6098C79.1382 15.7374 78.9504 15.9287 78.8157 16.1838C78.6881 16.4319 78.6244 16.7472 78.6244 17.1299V20H77.2956V14.3236H78.5606V15.8543L78.3374 15.3866C78.5358 15.0252 78.8228 14.7488 79.1984 14.5574C79.5811 14.359 80.0204 14.2598 80.5165 14.2598ZM87.2617 22.1366C86.7373 22.1366 86.2235 22.0658 85.7204 21.924C85.2243 21.7894 84.8168 21.591 84.4979 21.3288L85.0932 20.3295C85.3413 20.535 85.6531 20.698 86.0287 20.8185C86.4113 20.9461 86.7976 21.0099 87.1873 21.0099C87.811 21.0099 88.268 20.8646 88.5586 20.574C88.8492 20.2906 88.9944 19.8618 88.9944 19.2878V18.2779L89.1007 16.9917L89.0582 15.7055V14.3236H90.3232V19.139C90.3232 20.1665 90.061 20.9213 89.5366 21.4032C89.0121 21.8921 88.2539 22.1366 87.2617 22.1366ZM87.0917 19.7449C86.5531 19.7449 86.0641 19.6315 85.6247 19.4047C85.1924 19.1709 84.8487 18.8484 84.5936 18.4374C84.3456 18.0264 84.2216 17.5445 84.2216 16.9917C84.2216 16.446 84.3456 15.9677 84.5936 15.5567C84.8487 15.1456 85.1924 14.8267 85.6247 14.6C86.0641 14.3732 86.5531 14.2598 87.0917 14.2598C87.5736 14.2598 88.0058 14.3555 88.3885 14.5468C88.7712 14.7381 89.0759 15.0358 89.3027 15.4397C89.5366 15.8437 89.6535 16.361 89.6535 16.9917C89.6535 17.6224 89.5366 18.1433 89.3027 18.5543C89.0759 18.9583 88.7712 19.2594 88.3885 19.4579C88.0058 19.6492 87.5736 19.7449 87.0917 19.7449ZM87.2936 18.6181C87.6267 18.6181 87.9243 18.5508 88.1865 18.4161C88.4488 18.2744 88.6507 18.0831 88.7925 17.8421C88.9413 17.5941 89.0157 17.3106 89.0157 16.9917C89.0157 16.6728 88.9413 16.3929 88.7925 16.1519C88.6507 15.9039 88.4488 15.7161 88.1865 15.5885C87.9243 15.4539 87.6267 15.3866 87.2936 15.3866C86.9606 15.3866 86.6594 15.4539 86.3901 15.5885C86.1279 15.7161 85.9224 15.9039 85.7735 16.1519C85.6318 16.3929 85.5609 16.6728 85.5609 16.9917C85.5609 17.3106 85.6318 17.5941 85.7735 17.8421C85.9224 18.0831 86.1279 18.2744 86.3901 18.4161C86.6594 18.5508 86.9606 18.6181 87.2936 18.6181ZM94.7276 20.0744C94.1465 20.0744 93.6291 19.9504 93.1756 19.7024C92.722 19.4472 92.3642 19.1 92.102 18.6606C91.8398 18.2212 91.7087 17.7216 91.7087 17.1618C91.7087 16.5949 91.8398 16.0952 92.102 15.663C92.3642 15.2236 92.722 14.8799 93.1756 14.6318C93.6291 14.3838 94.1465 14.2598 94.7276 14.2598C95.3158 14.2598 95.8366 14.3838 96.2902 14.6318C96.7508 14.8799 97.1087 15.22 97.3638 15.6523C97.626 16.0846 97.7571 16.5878 97.7571 17.1618C97.7571 17.7216 97.626 18.2212 97.3638 18.6606C97.1087 19.1 96.7508 19.4472 96.2902 19.7024C95.8366 19.9504 95.3158 20.0744 94.7276 20.0744ZM94.7276 18.937C95.0536 18.937 95.3441 18.8661 95.5992 18.7244C95.8544 18.5827 96.0528 18.3772 96.1945 18.1079C96.3433 17.8386 96.4177 17.5232 96.4177 17.1618C96.4177 16.7933 96.3433 16.4779 96.1945 16.2157C96.0528 15.9464 95.8544 15.7409 95.5992 15.5992C95.3441 15.4574 95.0571 15.3866 94.7382 15.3866C94.4122 15.3866 94.1217 15.4574 93.8665 15.5992C93.6185 15.7409 93.4201 15.9464 93.2713 16.2157C93.1224 16.4779 93.048 16.7933 93.048 17.1618C93.048 17.5232 93.1224 17.8386 93.2713 18.1079C93.4201 18.3772 93.6185 18.5827 93.8665 18.7244C94.1217 18.8661 94.4087 18.937 94.7276 18.937Z" fill="white"/>
<path d="M13.2138 32V25.959H15.7596C16.404 25.959 16.9707 26.0856 17.4597 26.3387C17.9545 26.5919 18.3371 26.9457 18.6075 27.4002C18.8837 27.8547 19.0218 28.3812 19.0218 28.9795C19.0218 29.5778 18.8837 30.1043 18.6075 30.5588C18.3371 31.0133 17.9545 31.3671 17.4597 31.6203C16.9707 31.8734 16.404 32 15.7596 32H13.2138ZM14.0768 31.2492H15.7078C16.2084 31.2492 16.6399 31.1543 17.0023 30.9644C17.3706 30.7745 17.6553 30.5099 17.8567 30.1704C18.0581 29.8252 18.1588 29.4283 18.1588 28.9795C18.1588 28.525 18.0581 28.128 17.8567 27.7886C17.6553 27.4491 17.3706 27.1845 17.0023 26.9946C16.6399 26.8047 16.2084 26.7098 15.7078 26.7098H14.0768V31.2492ZM22.3458 32.0518C21.8568 32.0518 21.4253 31.9511 21.0513 31.7497C20.6831 31.5484 20.3954 31.2722 20.1883 30.9212C19.9869 30.5703 19.8862 30.1676 19.8862 29.713C19.8862 29.2585 19.984 28.8558 20.1797 28.5048C20.381 28.1539 20.6543 27.8806 20.9995 27.685C21.3505 27.4836 21.7446 27.3829 22.1818 27.3829C22.6248 27.3829 23.0161 27.4808 23.3555 27.6764C23.6949 27.872 23.9596 28.1481 24.1495 28.5048C24.3451 28.8558 24.4429 29.2672 24.4429 29.7389C24.4429 29.7735 24.44 29.8137 24.4343 29.8598C24.4343 29.9058 24.4314 29.9489 24.4256 29.9892H20.5335V29.3937H23.9941L23.6576 29.6009C23.6633 29.3074 23.6029 29.0457 23.4763 28.8155C23.3497 28.5854 23.1743 28.407 22.9499 28.2805C22.7313 28.1481 22.4752 28.082 22.1818 28.082C21.8942 28.082 21.6381 28.1481 21.4138 28.2805C21.1894 28.407 21.0139 28.5883 20.8873 28.8242C20.7607 29.0543 20.6975 29.3189 20.6975 29.6181V29.7562C20.6975 30.0611 20.7665 30.3344 20.9046 30.576C21.0484 30.8119 21.2469 30.996 21.5001 31.1284C21.7532 31.2607 22.0437 31.3269 22.3717 31.3269C22.6421 31.3269 22.8866 31.2808 23.1052 31.1888C23.3296 31.0967 23.5252 30.9586 23.6921 30.7745L24.1495 31.3096C23.9423 31.5512 23.6834 31.7353 23.3728 31.8619C23.0678 31.9885 22.7255 32.0518 22.3458 32.0518ZM26.7949 32L24.7927 27.4261H25.6557L27.4335 31.5685H27.0193L28.8316 27.4261H29.6428L27.6406 32H26.7949ZM32.4126 32.0518C31.9235 32.0518 31.492 31.9511 31.118 31.7497C30.7498 31.5484 30.4622 31.2722 30.2551 30.9212C30.0537 30.5703 29.953 30.1676 29.953 29.713C29.953 29.2585 30.0508 28.8558 30.2464 28.5048C30.4478 28.1539 30.7211 27.8806 31.0663 27.685C31.4172 27.4836 31.8113 27.3829 32.2486 27.3829C32.6916 27.3829 33.0828 27.4808 33.4223 27.6764C33.7617 27.872 34.0264 28.1481 34.2162 28.5048C34.4118 28.8558 34.5096 29.2672 34.5096 29.7389C34.5096 29.7735 34.5068 29.8137 34.501 29.8598C34.501 29.9058 34.4981 29.9489 34.4924 29.9892H30.6002V29.3937H34.0609L33.7243 29.6009C33.7301 29.3074 33.6697 29.0457 33.5431 28.8155C33.4165 28.5854 33.241 28.407 33.0167 28.2805C32.798 28.1481 32.542 28.082 32.2486 28.082C31.9609 28.082 31.7049 28.1481 31.4805 28.2805C31.2561 28.407 31.0807 28.5883 30.9541 28.8242C30.8275 29.0543 30.7642 29.3189 30.7642 29.6181V29.7562C30.7642 30.0611 30.8333 30.3344 30.9713 30.576C31.1152 30.8119 31.3137 30.996 31.5668 31.1284C31.82 31.2607 32.1105 31.3269 32.4384 31.3269C32.7088 31.3269 32.9534 31.2808 33.172 31.1888C33.3964 31.0967 33.592 30.9586 33.7588 30.7745L34.2162 31.3096C34.0091 31.5512 33.7502 31.7353 33.4395 31.8619C33.1346 31.9885 32.7923 32.0518 32.4126 32.0518ZM35.7464 32V25.5965H36.5748V32H35.7464ZM40.202 32.0518C39.7417 32.0518 39.3332 31.9511 38.9765 31.7497C38.6198 31.5484 38.3379 31.2722 38.1308 30.9212C37.9237 30.5645 37.8201 30.1618 37.8201 29.713C37.8201 29.2585 37.9237 28.8558 38.1308 28.5048C38.3379 28.1539 38.6198 27.8806 38.9765 27.685C39.3332 27.4836 39.7417 27.3829 40.202 27.3829C40.6565 27.3829 41.0621 27.4836 41.4188 27.685C41.7813 27.8806 42.0632 28.1539 42.2646 28.5048C42.4717 28.85 42.5753 29.2528 42.5753 29.713C42.5753 30.1676 42.4717 30.5703 42.2646 30.9212C42.0632 31.2722 41.7813 31.5484 41.4188 31.7497C41.0621 31.9511 40.6565 32.0518 40.202 32.0518ZM40.202 31.3269C40.4954 31.3269 40.7572 31.2607 40.9873 31.1284C41.2232 30.996 41.4073 30.8091 41.5397 30.5674C41.672 30.32 41.7381 30.0352 41.7381 29.713C41.7381 29.3851 41.672 29.1032 41.5397 28.8673C41.4073 28.6257 41.2232 28.4387 40.9873 28.3064C40.7572 28.174 40.4954 28.1079 40.202 28.1079C39.9086 28.1079 39.6468 28.174 39.4167 28.3064C39.1865 28.4387 39.0024 28.6257 38.8644 28.8673C38.7263 29.1032 38.6572 29.3851 38.6572 29.713C38.6572 30.0352 38.7263 30.32 38.8644 30.5674C39.0024 30.8091 39.1865 30.996 39.4167 31.1284C39.6468 31.2607 39.9086 31.3269 40.202 31.3269ZM46.2323 32.0518C45.8526 32.0518 45.5046 31.9655 45.1881 31.7929C44.8774 31.6145 44.6272 31.3527 44.4373 31.0075C44.2532 30.6623 44.1611 30.2308 44.1611 29.713C44.1611 29.1952 44.2503 28.7637 44.4287 28.4185C44.6128 28.0733 44.8602 27.8144 45.1709 27.6418C45.4873 27.4692 45.8411 27.3829 46.2323 27.3829C46.6811 27.3829 47.0781 27.4808 47.4233 27.6764C47.7685 27.872 48.0418 28.1453 48.2431 28.4962C48.4445 28.8414 48.5452 29.247 48.5452 29.713C48.5452 30.1791 48.4445 30.5876 48.2431 30.9385C48.0418 31.2895 47.7685 31.5627 47.4233 31.7584C47.0781 31.954 46.6811 32.0518 46.2323 32.0518ZM43.8073 33.6742V27.4261H44.6013V28.6602L44.5495 29.7217L44.6358 30.7832V33.6742H43.8073ZM46.1633 31.3269C46.4567 31.3269 46.7185 31.2607 46.9486 31.1284C47.1845 30.996 47.3686 30.8091 47.501 30.5674C47.639 30.32 47.7081 30.0352 47.7081 29.713C47.7081 29.3851 47.639 29.1032 47.501 28.8673C47.3686 28.6257 47.1845 28.4387 46.9486 28.3064C46.7185 28.174 46.4567 28.1079 46.1633 28.1079C45.8756 28.1079 45.6139 28.174 45.378 28.3064C45.1478 28.4387 44.9637 28.6257 44.8257 28.8673C44.6933 29.1032 44.6272 29.3851 44.6272 29.713C44.6272 30.0352 44.6933 30.32 44.8257 30.5674C44.9637 30.8091 45.1478 30.996 45.378 31.1284C45.6139 31.2607 45.8756 31.3269 46.1633 31.3269ZM55.4979 27.3829C55.8661 27.3829 56.1911 27.4549 56.4731 27.5987C56.755 27.7425 56.9736 27.9612 57.1289 28.2546C57.29 28.548 57.3706 28.9191 57.3706 29.3678V32H56.5421V29.4628C56.5421 29.0198 56.4385 28.6861 56.2314 28.4617C56.0243 28.2373 55.7338 28.1251 55.3598 28.1251C55.0836 28.1251 54.842 28.1827 54.6349 28.2977C54.4277 28.4128 54.2667 28.5825 54.1516 28.8069C54.0423 29.0313 53.9876 29.3103 53.9876 29.644V32H53.1591V29.4628C53.1591 29.0198 53.0556 28.6861 52.8485 28.4617C52.6471 28.2373 52.3565 28.1251 51.9768 28.1251C51.7064 28.1251 51.4677 28.1827 51.2605 28.2977C51.0534 28.4128 50.8923 28.5825 50.7773 28.8069C50.6622 29.0313 50.6047 29.3103 50.6047 29.644V32H49.7762V27.4261H50.5701V28.6429L50.4407 28.3322C50.5845 28.0331 50.806 27.8001 51.1052 27.6332C51.4044 27.4664 51.7524 27.3829 52.1494 27.3829C52.5867 27.3829 52.9635 27.4923 53.28 27.7109C53.5964 27.9238 53.8035 28.2488 53.9013 28.6861L53.5647 28.548C53.7028 28.197 53.9445 27.9151 54.2897 27.7023C54.6349 27.4894 55.0376 27.3829 55.4979 27.3829ZM61.018 32.0518C60.5289 32.0518 60.0974 31.9511 59.7235 31.7497C59.3553 31.5484 59.0676 31.2722 58.8605 30.9212C58.6591 30.5703 58.5584 30.1676 58.5584 29.713C58.5584 29.2585 58.6562 28.8558 58.8518 28.5048C59.0532 28.1539 59.3265 27.8806 59.6717 27.685C60.0226 27.4836 60.4167 27.3829 60.854 27.3829C61.297 27.3829 61.6882 27.4808 62.0277 27.6764C62.3671 27.872 62.6318 28.1481 62.8216 28.5048C63.0173 28.8558 63.1151 29.2672 63.1151 29.7389C63.1151 29.7735 63.1122 29.8137 63.1064 29.8598C63.1064 29.9058 63.1036 29.9489 63.0978 29.9892H59.2057V29.3937H62.6663L62.3297 29.6009C62.3355 29.3074 62.2751 29.0457 62.1485 28.8155C62.0219 28.5854 61.8464 28.407 61.6221 28.2805C61.4034 28.1481 61.1474 28.082 60.854 28.082C60.5663 28.082 60.3103 28.1481 60.0859 28.2805C59.8615 28.407 59.6861 28.5883 59.5595 28.8242C59.4329 29.0543 59.3696 29.3189 59.3696 29.6181V29.7562C59.3696 30.0611 59.4387 30.3344 59.5768 30.576C59.7206 30.8119 59.9191 30.996 60.1722 31.1284C60.4254 31.2607 60.7159 31.3269 61.0439 31.3269C61.3143 31.3269 61.5588 31.2808 61.7774 31.1888C62.0018 31.0967 62.1974 30.9586 62.3642 30.7745L62.8216 31.3096C62.6145 31.5512 62.3556 31.7353 62.0449 31.8619C61.74 31.9885 61.3977 32.0518 61.018 32.0518ZM66.7941 27.3829C67.168 27.3829 67.496 27.4549 67.7779 27.5987C68.0656 27.7425 68.2899 27.9612 68.451 28.2546C68.6121 28.548 68.6927 28.9191 68.6927 29.3678V32H67.8642V29.4628C67.8642 29.0198 67.7549 28.6861 67.5362 28.4617C67.3234 28.2373 67.0213 28.1251 66.6301 28.1251C66.3367 28.1251 66.0807 28.1827 65.862 28.2977C65.6434 28.4128 65.4737 28.5825 65.3529 28.8069C65.2378 29.0313 65.1803 29.3103 65.1803 29.644V32H64.3518V27.4261H65.1457V28.6602L65.0163 28.3322C65.1659 28.0331 65.396 27.8001 65.7067 27.6332C66.0174 27.4664 66.3798 27.3829 66.7941 27.3829ZM71.8829 32.0518C71.4226 32.0518 71.0659 31.9281 70.8127 31.6807C70.5596 31.4333 70.433 31.0795 70.433 30.6192V26.425H71.2615V30.5847C71.2615 30.8321 71.3219 31.0219 71.4427 31.1543C71.5693 31.2866 71.7477 31.3527 71.9778 31.3527C72.2367 31.3527 72.4524 31.2808 72.625 31.137L72.8839 31.7325C72.7574 31.8418 72.6049 31.9223 72.4266 31.9741C72.254 32.0259 72.0727 32.0518 71.8829 32.0518ZM69.6563 28.1079V27.4261H72.5733V28.1079H69.6563Z" fill="white" fill-opacity="0.71"/>
</g>
<g clip-path="url(#clip0_5_101)">
<path d="M160.062 21.5081H163.345C164.258 21.5081 164.987 20.7549 164.987 19.8389V16.7066C164.987 15.8152 164.237 15.1481 163.345 14.9975C162.245 14.8161 161.049 14.8253 160.062 15.0005C158.673 15.2464 158.421 15.7598 158.421 16.7097V17.3801H161.707V18.3788H157.188C156.232 18.3788 155.396 18.9536 155.135 20.0449C154.834 21.296 154.821 22.0768 155.135 23.3832C155.368 24.3546 155.925 25.0493 156.881 25.0493H158.009V23.5492C158.009 22.4641 158.947 21.5081 160.062 21.5081Z" fill="#0B112F"/>
<path d="M168.843 20.543C168.606 19.5932 168.158 18.877 167.202 18.877H165.969V20.334C165.969 21.4652 165.01 22.4181 163.916 22.4181H160.633C159.735 22.4181 158.991 23.1867 158.991 24.0873V27.2166C158.991 28.108 159.766 28.6305 160.633 28.8858C161.672 29.19 162.671 29.2454 163.916 28.8858C164.743 28.6459 165.557 28.1634 165.557 27.2166V26.5605H162.277V25.5474H167.202C168.158 25.5474 168.511 24.8804 168.843 23.8814C169.187 22.8515 169.172 21.8617 168.843 20.543Z" fill="#0B112F"/>
<path d="M159.857 16.8003C159.529 16.8003 159.264 16.5319 159.264 16.2015C159.267 15.8681 159.529 15.5996 159.857 15.5996C160.181 15.5996 160.45 15.871 160.45 16.2015C160.45 16.5319 160.184 16.8003 159.857 16.8003Z" fill="white"/>
<path d="M163.841 28.3765C163.514 28.3765 163.248 28.108 163.248 27.7776C163.251 27.4442 163.514 27.1758 163.841 27.1758C164.166 27.1758 164.434 27.4472 164.434 27.7776C164.434 28.108 164.169 28.3765 163.841 28.3765Z" fill="white"/>
</g>
<defs>
<linearGradient id="paint0_linear_5_101" x1="162.997" y1="10.1141" x2="161.427" y2="34.0804" gradientUnits="userSpaceOnUse">
<stop stop-color="#38F1B9"/>
<stop offset="1" stop-color="#38F1B9"/>
</linearGradient>
<clipPath id="clip0_5_101">
<rect width="16" height="16" fill="white" transform="translate(154 14)"/>
</clipPath>
</defs>
</svg>
